<?xml version="1.0" encoding="utf-8"?>
<!-- Generator: Adobe Illustrator 22.1.0, SVG Export Plug-In . SVG Version: 6.00 Build 0)  -->
<svg version="1.1" id="Capa_1" xmlns="http://www.w3.org/2000/svg" xmlns:xlink="http://www.w3.org/1999/xlink" x="0px" y="0px"
	 viewBox="0 0 752 234" style="enable-background:new 0 0 752 234;" xml:space="preserve">
<style type="text/css">
	.st0{fill:#D4AD31;}
	.st1{fill:#FFFFFF;}
	.st2{fill:#555554;}
	.st3{fill:#2A2A2A;}
</style>
<g>
	<g>
		<g>
			<path class="st0" d="M162.1,182.1c7.9-4.6,17.6-13.5,22.4-21.1c4.6,7.2,15.4,16.8,22.7,21.3c0,0-16.1,29.8-22.9,29.8
				C177.7,212,162.1,182.1,162.1,182.1z"/>
		</g>
		<g>
			<path class="st1" d="M175.9,110.5c0-29.2-23.8-53-53-53c-29.2,0-53,23.8-53,53c0,29.2,23.8,53,53,53
				C152.1,163.5,175.9,139.7,175.9,110.5z"/>
			<path class="st1" d="M298.4,110.5c0-29.2-23.8-53-53-53c-29.2,0-53,23.8-53,53c0,29.2,23.8,53,53,53
				C274.6,163.5,298.4,139.7,298.4,110.5z"/>
			<path class="st2" d="M292.8,60c15-3.1,17.6-21.3,17-36.4l-0.1-1.5l-1.2,0.9c-17.3,12.6-29.5,18.2-55.5,18.2c-2.3,0-4.7,0-7.2-0.1
				l-0.7,0l0,0c-25.7,0-49,14.1-61.1,36.8c-11.9-22.3-34.7-36.3-59.9-36.8l0,0c-0.1,0-0.1,0-0.2,0c-0.6,0-2.1,0-2.4,0
				C92.4,41.8,79.9,36.3,61.6,23l-1.3-0.9l0,1.6c0.2,20.4,5.4,32.6,15.3,36.1c-14.1,13.2-22.2,31.6-22.2,50.7
				c0,38.3,31.2,69.4,69.4,69.4c25.8,0,49.1-14.1,61.2-36.8c12.1,22.8,35.5,36.8,61.2,36.8c38.3,0,69.4-31.1,69.4-69.4
				C314.8,91.4,306.8,73.1,292.8,60z M69.9,110.5c0-29.2,23.8-53,53-53c29.2,0,53,23.8,53,53c0,29.2-23.8,53-53,53
				C93.7,163.5,69.9,139.7,69.9,110.5z M192.3,110.5c0-29.2,23.8-53,53-53c29.2,0,53,23.8,53,53c0,29.2-23.8,53-53,53
				C216.1,163.5,192.3,139.7,192.3,110.5z"/>
		</g>
		<path class="st3" d="M144.1,111.5c0,9.3-7.5,16.8-16.8,16.8c-9.3,0-16.8-7.5-16.8-16.8c0-9.3,7.5-16.8,16.8-16.8
			C136.6,94.7,144.1,102.3,144.1,111.5z"/>
		<path class="st3" d="M252.5,111.5c0,9.3-7.5,16.8-16.8,16.8c-9.3,0-16.8-7.5-16.8-16.8c0-9.3,7.5-16.8,16.8-16.8
			C245,94.7,252.5,102.3,252.5,111.5z"/>
		<path class="st0" d="M244.4,34.6c-26.7,0-49.9,8.1-61.2,30.5c-11.1-22-33.7-30-59.9-30.4c0,0,11.7-10.4,58.6-10.4
			C228.7,24.3,244.6,34.6,244.4,34.6z"/>
	</g>
	<g>
		<path class="st1" d="M484.3,122.8c0,0.1-0.2,6-3.1,11.7c-3.4,6.6-9.4,9.7-18.2,9.7c-8.8,0-14.7-3.2-18.3-9.7
			c-2.9-5.6-3-11.6-3-11.6V66.5h-19.5v56.4c0,1,0.1,10.3,4.9,19.9c6.8,13.5,19.5,21,35.9,21c16.5,0,29.3-7.4,36-21
			c4.7-9.6,4.9-18.9,4.9-19.9V66.5h-19.5V122.8z"/>
		<polygon class="st1" points="564.9,66.5 564.9,105.1 531.8,105.1 531.8,66.5 512.2,66.5 512.2,163.7 531.8,163.7 531.8,124.8 
			564.9,124.8 564.9,163.7 584.5,163.7 584.5,66.5 		"/>
		<path class="st1" d="M415.2,86.6c0-31.8-36.3-31.8-36.3-31.8h-43.6v108.9h43.6c0,0,36.3,0,36.3-31.8c0,0,0-22.6-18.2-22.6
			C396.9,109.3,415.2,109.3,415.2,86.6z M378.9,145.6h-25.5v-27.3h25.5c0,0,18.1,0,18.1,13.6C396.9,145.6,378.9,145.6,378.9,145.6z
			 M378.9,100.1h-25.5V72.9h25.5c0,0,18.1,0,18.1,13.7C396.9,100.1,378.9,100.1,378.9,100.1z"/>
		<path class="st1" d="M644.7,54.8c-30.1,0-54.4,24.5-54.4,54.5c0,30.1,24.3,54.4,54.4,54.4c30.2,0,54.5-24.3,54.5-54.4
			C699.2,79.3,674.9,54.8,644.7,54.8z M644.7,145.6c-19.9,0-36.3-16.4-36.3-36.3c0-20.1,16.4-36.3,36.3-36.3
			c20.1,0,36.3,16.2,36.3,36.3C681,129.3,664.8,145.6,644.7,145.6z"/>
	</g>
</g>
</svg>
