<?xml version="1.0" encoding="utf-8"?>
<!-- Generator: Adobe Illustrator 22.1.0, SVG Export Plug-In . SVG Version: 6.00 Build 0)  -->
<svg version="1.1" id="Capa_1" xmlns="http://www.w3.org/2000/svg" xmlns:xlink="http://www.w3.org/1999/xlink" x="0px" y="0px"
	 viewBox="0 0 752 234" style="enable-background:new 0 0 752 234;" xml:space="preserve">
<style type="text/css">
	.st0{fill:#FFFFFF;}
	.st1{fill:#D9B413;}
	.st2{fill:#D8D9D9;}
	.st3{fill:#6A6967;}
</style>
<g>
	<g>
		<g>
			<path class="st0" d="M224.9,118.1c0,53.9-43.7,97.5-97.5,97.5s-97.5-43.7-97.5-97.5c0-53.9,43.7-97.5,97.5-97.5
				S224.9,64.2,224.9,118.1z"/>
		</g>
		<g>
			<g>
				<path class="st1" d="M95.2,90.8c7.1-8.4,16.9-13.3,27.1-14.5l41.4-48.7c-38-15.2-82.9-5.4-110.7,27.3s-30.2,78.7-9.2,113.6
					l41.4-48.7C84.8,109.6,88,99.2,95.2,90.8z"/>
			</g>
			<g>
				<path class="st2" d="M168.4,127.9l44.3,37.6c21.1-38,14.5-86.4-17.3-117.3l-36,42.4C168.3,101,171.5,114.9,168.4,127.9z"/>
			</g>
			<g>
				<path class="st3" d="M105.3,154.1l-36,42.4c34.8,25.8,82,25.1,115.9,0.1l-45.1-38.3C128.7,162,116,160.6,105.3,154.1z"/>
			</g>
		</g>
	</g>
	<g>
		<g>
			<path class="st0" d="M307.7,89.7h-21.4v71.1H272V89.7h-21.4V75.4h57v14.3H307.7z"/>
			<path class="st0" d="M345.8,125.2h-11.6v35.6h-14.3V75.4h28.4c0,0,28.6,0,28.6,24.9c0,13.8-8.8,19.9-16.5,22.7l17.5,37.8h-15.7
				L345.8,125.2z M334.2,111h14.2c0,0,14.3,0,14.3-10.7c0-10.6-14.3-10.6-14.3-10.6h-14.2V111z"/>
			<path class="st0" d="M389.3,75.4h14.3v85.4h-14.3V75.4z"/>
			<path class="st0" d="M472.7,160.8L430.3,100v60.8H416V75.4h14.4l42.6,60.8V75.4h14.2v85.4H472.7z"/>
			<path class="st0" d="M500.6,75.4h14.3v85.4h-14.3L500.6,75.4L500.6,75.4z"/>
			<path class="st0" d="M592.6,118.1c0,42.7-49.7,42.7-49.7,42.7h-14.3V75.5h14.3C542.9,75.5,592.6,75.5,592.6,118.1z M578.4,118.1
				c0-28.4-35.5-28.4-35.5-28.4v56.9C542.9,146.5,578.4,146.5,578.4,118.1z"/>
			<polygon class="st0" points="624,75.4 590,160.8 605.4,160.8 624,113.8 642.8,160.8 658.2,160.8 			"/>
			<path class="st0" d="M730.2,118.1c0,42.7-49.7,42.7-49.7,42.7h-14.3V75.5h14.3C680.5,75.5,730.2,75.5,730.2,118.1z M716,118.1
				c0-28.4-35.5-28.4-35.5-28.4v56.9C680.5,146.5,716,146.5,716,118.1z"/>
		</g>
	</g>
</g>
</svg>
