<?xml version="1.0" encoding="utf-8"?>
<!-- Generator: Adobe Illustrator 22.1.0, SVG Export Plug-In . SVG Version: 6.00 Build 0)  -->
<svg version="1.1" id="Capa_1" xmlns="http://www.w3.org/2000/svg" xmlns:xlink="http://www.w3.org/1999/xlink" x="0px" y="0px"
	 viewBox="0 0 752 234" style="enable-background:new 0 0 752 234;" xml:space="preserve">
<style type="text/css">
	.st0{fill:#FFFFFF;}
	.st1{fill:#D4AD31;}
	.st2{fill:#545554;}
	.st3{fill:#666667;}
	.st4{fill:#CDCDCE;}
</style>
<g>
	<g>
		<g>
			<path class="st0" d="M391.6,101.3c0,27.6-31.5,27.6-31.5,27.6h-15.7v39.3h-15.7V73.7h31.5C360.1,73.7,391.6,73.7,391.6,101.3z
				 M375.8,101.3c0-11.8-15.7-11.8-15.7-11.8h-15.7v23.7h15.7C360.1,113.1,375.8,113.1,375.8,101.3z"/>
		</g>
		<g>
			<path class="st0" d="M527.5,168l-46.8-67v67h-15.7V73.8h15.9l47,67v-67h15.6V168H527.5z"/>
		</g>
		<g>
			<path class="st0" d="M683.6,152.3V168H633V73.8h15.7v78.5H683.6z"/>
		</g>
		<g>
			<polygon class="st0" points="419.9,74.1 382.3,168.3 399.3,168.3 419.9,116.5 440.6,168.3 457.6,168.3 			"/>
		</g>
		<g>
			<polygon class="st0" points="588.5,73.8 550.9,168.1 567.9,168.1 588.5,116.2 609.2,168.1 626.2,168.1 			"/>
		</g>
	</g>
	<g>
		<g>
			<polygon class="st1" points="194.4,177.3 161.4,120.2 194.4,63.1 260.3,63.1 293.3,120.2 260.3,177.3 			"/>
			<path class="st2" d="M260.3,180.8h-65.9c-1.3,0-2.4-0.7-3-1.8l-33-57.1c-0.6-1.1-0.6-2.4,0-3.5l33-57.1c0.6-1.1,1.8-1.8,3-1.8
				h65.9c1.3,0,2.4,0.7,3,1.8l33,57.1c0.6,1.1,0.6,2.4,0,3.5l-33,57.1C262.7,180.1,261.6,180.8,260.3,180.8z M196.4,173.8h61.9
				l31-53.6l-31-53.6h-61.9l-31,53.6L196.4,173.8z"/>
		</g>
		<g>
			<path class="st0" d="M250.5,165.1c-0.7,0-1.4-0.2-2-0.5c-1.9-1.1-2.6-3.6-1.5-5.5l22.8-39.5L247,80.2c-1.1-1.9-0.4-4.4,1.5-5.5
				c1.9-1.1,4.4-0.4,5.5,1.5l23.9,41.5c0.7,1.2,0.7,2.8,0,4l-23.9,41.5C253.2,164.4,251.9,165.1,250.5,165.1z"/>
		</g>
		<g>
			<g>
				<polygon class="st3" points="96.6,103.2 70.4,57.8 96.6,12.5 148.9,12.5 175.1,57.8 148.9,103.2 				"/>
				<path class="st2" d="M148.9,106.7H96.6c-1.3,0-2.4-0.7-3-1.8L67.4,59.6c-0.6-1.1-0.6-2.4,0-3.5l26.2-45.4c0.6-1.1,1.8-1.8,3-1.8
					h52.4c1.3,0,2.4,0.7,3,1.8l26.2,45.4c0.6,1.1,0.6,2.4,0,3.5L152,104.9C151.3,106,150.2,106.7,148.9,106.7z M98.6,99.7h48.3
					l24.2-41.9L146.9,16H98.6L74.4,57.8L98.6,99.7z"/>
			</g>
			<g>
				<path class="st0" d="M109,93.5c-1.4,0-2.7-0.7-3.5-2L86.4,59c-0.7-1.2-0.7-2.8,0-4l18-31.4c1.1-1.9,3.5-2.6,5.5-1.5
					c1.9,1.1,2.6,3.5,1.5,5.5L94.5,57l18,30.5c1.1,1.9,0.5,4.4-1.4,5.5C110.4,93.3,109.7,93.5,109,93.5z"/>
			</g>
		</g>
		<g>
			<g>
				<polygon class="st4" points="108.4,219.5 86.2,181.2 108.4,142.8 152.7,142.8 174.8,181.2 152.7,219.5 				"/>
				<path class="st2" d="M152.7,223h-44.3c-1.3,0-2.4-0.7-3-1.8l-22.1-38.4c-0.6-1.1-0.6-2.4,0-3.5l22.1-38.4c0.6-1.1,1.8-1.8,3-1.8
					h44.3c1.3,0,2.4,0.7,3,1.8l22.1,38.4c0.6,1.1,0.6,2.4,0,3.5l-22.1,38.4C155.1,222.4,153.9,223,152.7,223z M110.4,216h40.3
					l20.1-34.9l-20.1-34.9h-40.3l-20.1,34.9L110.4,216z"/>
			</g>
			<g>
				<path class="st0" d="M117.5,208.4c-1.4,0-2.7-0.7-3.5-2l-13.9-24c-0.7-1.2-0.7-2.8,0-4l13.9-24c1.1-1.9,3.6-2.6,5.5-1.5
					c1.9,1.1,2.6,3.6,1.5,5.5l-12.7,22l12.7,22c1.1,1.9,0.4,4.4-1.5,5.5C118.9,208.2,118.2,208.4,117.5,208.4z"/>
			</g>
		</g>
		<g>
			
				<rect x="161.2" y="76.6" transform="matrix(0.4875 -0.8731 0.8731 0.4875 10.4243 193.0048)" class="st2" width="16.8" height="22.1"/>
		</g>
		<g>
			
				<rect x="158.4" y="145.7" transform="matrix(0.8773 -0.48 0.48 0.8773 -53.0932 100.6133)" class="st2" width="23.6" height="16.8"/>
		</g>
	</g>
</g>
</svg>
