<?xml version="1.0" encoding="utf-8"?>
<!-- Generator: Adobe Illustrator 22.1.0, SVG Export Plug-In . SVG Version: 6.00 Build 0)  -->
<svg version="1.1" id="Capa_1" xmlns="http://www.w3.org/2000/svg" xmlns:xlink="http://www.w3.org/1999/xlink" x="0px" y="0px"
	 viewBox="0 0 910 143" style="enable-background:new 0 0 910 143;" xml:space="preserve">
<style type="text/css">
	.st0{fill:#DBAC00;}
	.st1{fill:#FFFFFF;}
</style>
<g>
	<g id="XMLID_2_">
		<circle id="XMLID_12_" class="st0" cx="209" cy="32.8" r="14.5"/>
		<g id="XMLID_3_">
			<polygon id="XMLID_11_" class="st1" points="234.8,124.3 209,60.9 209,60.8 209,60.9 209,60.8 209,60.9 183.3,124.3 195.9,124.3 
				209,90.7 222.2,124.3 			"/>
			<path id="XMLID_10_" class="st1" d="M433.7,60.6c-17.6,0-32,14.3-32,32c0,17.6,14.3,32,32,32c17.6,0,32-14.3,32-32
				C465.6,74.9,451.3,60.6,433.7,60.6z M433.4,113.5c-11.6,0-21-9.4-21-21s9.4-21,21-21s21,9.4,21,21S444.9,113.5,433.4,113.5z"/>
			<path id="XMLID_9_" class="st1" d="M311,63.7v-2.5c0-0.3-0.2-0.5-0.5-0.5h-10.7c-0.3,0-0.5,0.2-0.5,0.5v17.1c0,0,0,0,0,0v18.4
				c0,0.7-0.2,16-15,16.2c-14.9-0.2-15-15.6-15-16.2V64.3h0v-3c0-0.3-0.2-0.5-0.5-0.5H258c-0.3,0-0.5,0.2-0.5,0.5v17.1
				c0,0,0,0.1,0,0.1v18.3c0,11.1,7.1,27.5,26.4,27.9v0c0.1,0,0.2,0,0.3,0c0.1,0,0.2,0,0.3,0v0c19.3-0.4,26.4-16.8,26.4-27.9
				L311,63.7L311,63.7z"/>
			<g id="XMLID_8_">
				<g>
					<path id="XMLID_28_" class="st1" d="M530.9,60.8h-41.6c-0.2,0-0.3,0.1-0.3,0.3v10.1c0,0.2,0.1,0.3,0.3,0.3h15.9l0,0h9.8l0,0
						h15.9c0.2,0,0.3-0.1,0.3-0.3V61.1C531.2,61,531.1,60.8,530.9,60.8z"/>
					<path id="XMLID_27_" class="st1" d="M489.3,87.3c-0.2,0-0.3,0.1-0.3,0.3v3.5v6.6v26.4c0,0.2,0.1,0.3,0.3,0.3h10.1
						c0.2,0,0.3-0.1,0.3-0.3V98h31.2c0.2,0,0.3-0.1,0.3-0.3V87.6c0-0.2-0.1-0.3-0.3-0.3H489.3z"/>
				</g>
			</g>
			<path id="XMLID_7_" class="st1" d="M572.4,60.7h-10.1c-0.2,0-0.3,0.1-0.3,0.3v63c0,0.2,0.1,0.3,0.3,0.3h10.1
				c0.2,0,0.3-0.1,0.3-0.3V61C572.7,60.9,572.5,60.7,572.4,60.7z"/>
			<path id="XMLID_5_" class="st1" d="M654.3,60.7h-10.1c-0.2,0-0.3,0.1-0.3,0.3v44.8l-31.4-44.5V61c0-0.2-0.1-0.3-0.3-0.3h-10.1
				c-0.2,0-0.3,0.1-0.3,0.3v63c0,0.2,0.1,0.3,0.3,0.3h10.1c0.2,0,0.3-0.1,0.3-0.3V79.9l31.3,44.4c0.1,0.1,0.2,0.1,0.3,0.1
				c0,0,0,0.1,0.1,0.1h10.1c0.2,0,0.3-0.1,0.3-0.3V61C654.6,60.9,654.4,60.7,654.3,60.7z"/>
			<path id="XMLID_4_" class="st1" d="M378.9,60.8h-41.6c-0.2,0-0.3,0.1-0.3,0.3v10.1c0,0.2,0.1,0.3,0.3,0.3h15.4v52.3
				c0,0.2,0.1,0.3,0.3,0.3h10.2c0.2,0,0.3-0.1,0.3-0.3V71.5h15.4c0.2,0,0.3-0.1,0.3-0.3V61.1C379.2,61,379.1,60.8,378.9,60.8z"/>
		</g>
	</g>
	<g>
		<path class="st1" d="M756.8,87v37.5h-10.7v-4.3c-4.8,2.8-10.2,4.3-16.1,4.3c-17.7,0-32.1-14.4-32.1-32.1s14.4-32.1,32.1-32.1
			c8.9,0,16.9,3.6,22.7,9.5l-7.5,7.5c-3.9-3.9-9.3-6.2-15.2-6.2c-11.8,0-21.4,9.5-21.4,21.4s9.5,21.4,21.4,21.4
			c6.4,0,12.1-2.8,16.1-7.3v-8.8h-18.7V87H756.8z"/>
		<path class="st1" d="M820.1,79c0,18.8-21.5,18.8-21.5,18.8h-10.7v26.8h-10.7V60.2h21.5C798.6,60.2,820.1,60.2,820.1,79z M809.4,79
			c0-8.1-10.7-8.1-10.7-8.1h-10.7v16.2h10.7C798.6,87.1,809.4,87.1,809.4,79z"/>
		<path class="st1" d="M838.8,105.8h10.7c0.2,5.3,4.6,8,9.4,8c5,0,9.4-2.9,9.4-8c0-5.4-5-7.9-9.4-8.1c-0.6,0-5,0-9.6-2.1
			c-6.7-3.1-10.5-9-10.5-16.6c0-11.4,9.7-18.7,20.1-18.7c11.1,0,19.8,7.8,20,18.7h-10.7c-0.2-5.3-4.5-8-9.4-8c-5.1,0-9.4,2.8-9.4,8
			c0,5.3,4.6,8.1,9.4,8.1c0.5,0,5,0,9.5,2.1c6.8,3.1,10.5,9,10.5,16.6c0,11.5-9.6,18.7-20,18.7C847.8,124.2,838.9,117,838.8,105.8z"
			/>
	</g>
	<g id="XMLID_1_">
		<g>
			<path id="XMLID_46_" class="st1" d="M42.1,60.6H54L68.7,105l14.9-44.4h11.8l10.7,63.7H94.4l-6.8-40.2L74,124.3H63.3L49.9,84.1
				l-7,40.2H31.1L42.1,60.6z"/>
			<path id="XMLID_44_" class="st1" d="M127.3,60.6h12v63.7h-12V60.6z"/>
		</g>
	</g>
</g>
</svg>
