<?xml version="1.0" encoding="utf-8"?>
<!-- Generator: Adobe Illustrator 22.1.0, SVG Export Plug-In . SVG Version: 6.00 Build 0)  -->
<svg version="1.1" id="Capa_1" xmlns="http://www.w3.org/2000/svg" xmlns:xlink="http://www.w3.org/1999/xlink" x="0px" y="0px"
	 viewBox="0 0 752 234" style="enable-background:new 0 0 752 234;" xml:space="preserve">
<style type="text/css">
	.st0{fill:#FFFFFF;}
	.st1{fill:#D9B413;}
	.st2{fill:#575753;}
</style>
<g>
	<g>
		<path class="st0" d="M298.1,77.1c7.1,0,13.5,3.9,13.7,11.7h15.6c-0.3-16-13.1-27.5-29.3-27.5c-15.2,0-29.5,10.8-29.5,27.5
			c0,11.2,5.5,19.8,15.3,24.4c6.9,3.1,13.3,3.1,14.1,3.1c6.3,0.3,13.7,3.9,13.7,11.8c0,7.4-6.5,11.7-13.7,11.7
			c-7,0-13.5-3.9-13.7-11.7h-15.7c0.3,16.4,13.2,27.1,29.5,27.5c15.2,0,29.3-10.6,29.3-27.5c0-11.2-5.4-19.8-15.3-24.4
			c-6.7-3.1-13.3-3.1-14-3.1c-7,0-13.7-4-13.7-11.8C284.4,81.3,290.7,77.1,298.1,77.1z"/>
		<path class="st0" d="M372.8,62.2h-31.5v94.5H357v-39.3h15.7c0,0,31.5,0,31.5-27.6C404.3,62.2,372.8,62.2,372.8,62.2z M372.8,101.6
			H357V77.9h15.7c0,0,15.7,0,15.7,11.8C388.5,101.6,372.8,101.6,372.8,101.6z"/>
		<rect x="417" y="61.3" class="st0" width="15.7" height="94.2"/>
		<path class="st0" d="M463.9,61.5h-15.7v94.1h15.7c0,0,54.8,0,54.8-47.1C518.7,61.5,463.9,61.5,463.9,61.5z M463.9,139.8V77.1
			c0,0,39.2,0,39.2,31.4S463.9,139.8,463.9,139.8z"/>
		<polygon class="st0" points="529.3,155.6 592.2,155.6 592.2,139.8 545.1,139.8 545.1,116.3 592.2,116.3 592.2,100.6 545.1,100.6 
			545.1,77.1 592.2,77.1 592.2,61.3 529.3,61.3 		"/>
		<path class="st0" d="M647.6,113.8c8.5-3.1,18.2-9.8,18.2-25c0-27.5-31.5-27.5-31.5-27.5h-31.4v94.2h15.7v-39.3h12.8l18,39.3h17.4
			L647.6,113.8z M634.2,100.6h-15.6V77.1h15.6c0,0,15.7,0,15.7,11.7C650,100.6,634.2,100.6,634.2,100.6z"/>
	</g>
	<g>
		<g>
			<path class="st1" d="M221.6,163.5c-14,0-25.3-11.4-25.3-25.3c0-14,11.4-25.3,25.3-25.3c14,0,25.3,11.4,25.3,25.3
				C247,152.2,235.6,163.5,221.6,163.5z"/>
			<path class="st0" d="M221.6,116.4c12.1,0,21.8,9.8,21.8,21.8c0,12.1-9.8,21.8-21.8,21.8c-12.1,0-21.8-9.8-21.8-21.8
				C199.8,126.1,209.6,116.4,221.6,116.4 M221.6,109.4c-15.9,0-28.8,12.9-28.8,28.8s12.9,28.8,28.8,28.8s28.8-12.9,28.8-28.8
				C250.5,122.3,237.5,109.4,221.6,109.4L221.6,109.4z"/>
		</g>
		<path class="st2" d="M75,192.7l176.8,0.2c0.6,0,1.2-0.3,1.5-0.8s0.4-1.2,0.2-1.7l-12.6-30.5c-2.7,2.4-5.7,4.2-9,5.4l7.1,17.2
			h-35.7l-10.6-25.8l5.5-1.8c-2.1-2.9-3.6-6.1-4.4-9.5l-5.1,1.6L174,111.5l0.3-0.3l25.8-23l9.7,23.6c3.2-1.5,6.7-2.3,10.2-2.5
			l-38.4-93c-0.3-0.6-0.9-1.1-1.6-1.1h-0.1c-0.7,0-1.2,0.3-1.6,0.9l-104.9,174c-0.3,0.6-0.4,1.3,0,1.9
			C73.8,192.4,74.4,192.7,75,192.7z M111.5,182.3l26-8.2l3.4,8.3L111.5,182.3z M104.2,173.7l24.2-21.6l5.1,12.3L104.2,173.7z
			 M191.9,182.4h-39.8l-4.7-11.4l35.2-11.2L191.9,182.4z M177.7,149.1l0.4,1.2l-34.6,11l-6.8-16.5l0.3-0.3l28.2-25.2l0.8,0.9
			l-0.2,0.1L177.7,149.1L177.7,149.1z M178.5,35.9l17.3,42l-0.3,0.3l-25.8,23l-12.4-30.1L178.5,35.9z M150.7,82l10.9,26.5
			l-29.2,26.1l-5.4-13.2L150.7,82z M120.3,132.4l3.9,9.4l-20.8,18.5L120.3,132.4z"/>
	</g>
</g>
</svg>
