<?xml version="1.0" encoding="utf-8"?>
<!-- Generator: Adobe Illustrator 22.1.0, SVG Export Plug-In . SVG Version: 6.00 Build 0)  -->
<svg version="1.1" id="Capa_1" xmlns="http://www.w3.org/2000/svg" xmlns:xlink="http://www.w3.org/1999/xlink" x="0px" y="0px"
	 viewBox="0 0 752 234" style="enable-background:new 0 0 752 234;" xml:space="preserve">
<style type="text/css">
	.st0{fill:#575753;}
	.st1{fill:#DDDEDC;}
	.st2{fill:#D9B413;}
	.st3{fill:#D8D9D9;}
	.st4{fill:#FFFFFF;}
</style>
<g>
	<g>
		<path class="st0" d="M223.1,179.3H117.7c-3.5,0-6.2-2.8-6.2-6.3c0-3.4,2.8-6.2,6.2-6.2h100.2L236.2,75H117.7
			c-3.5,0-6.2-2.8-6.2-6.2c0-3.5,2.8-6.2,6.2-6.2h126.1c1.9,0,3.6,0.8,4.8,2.3c1.2,1.4,1.7,3.3,1.3,5.2l-20.7,104.3
			C228.6,177.2,226,179.3,223.1,179.3z"/>
		<g>
			<path class="st1" d="M216.5,101.4h-60.9c-3.5,0-6.2-2.8-6.2-6.2c0-3.5,2.8-6.2,6.2-6.2h60.9c3.5,0,6.3,2.8,6.3,6.2
				C222.7,98.6,219.9,101.4,216.5,101.4z"/>
			<path class="st2" d="M131.1,101.4H20.2c-3.5,0-6.2-2.8-6.2-6.2c0-3.5,2.8-6.2,6.2-6.2h110.9c3.5,0,6.2,2.8,6.2,6.2
				C137.3,98.6,134.5,101.4,131.1,101.4z"/>
		</g>
		<g>
			<path class="st2" d="M207.9,127.9h-19.3c-3.5,0-6.2-2.8-6.2-6.2c0-3.5,2.8-6.2,6.2-6.2h19.3c3.4,0,6.2,2.8,6.2,6.2
				C214.1,125.1,211.4,127.9,207.9,127.9z"/>
			<path class="st3" d="M166.2,127.9H73.6c-3.5,0-6.2-2.8-6.2-6.2c0-3.5,2.8-6.2,6.2-6.2h92.7c3.5,0,6.2,2.8,6.2,6.2
				C172.5,125.1,169.7,127.9,166.2,127.9z"/>
		</g>
		<g>
			<path class="st2" d="M202.2,154.3h-91.6c-3.5,0-6.3-2.8-6.3-6.2c0-3.5,2.8-6.2,6.3-6.2h91.6c3.5,0,6.2,2.8,6.2,6.2
				C208.4,151.5,205.6,154.3,202.2,154.3z"/>
			<path class="st3" d="M91.3,154.3H79.8c-3.5,0-6.2-2.8-6.2-6.2c0-3.5,2.8-6.2,6.2-6.2h11.5c3.5,0,6.3,2.8,6.3,6.2
				C97.5,151.5,94.7,154.3,91.3,154.3z"/>
			<path class="st2" d="M61.6,154.3h-38c-3.5,0-6.3-2.8-6.3-6.2c0-3.5,2.8-6.2,6.3-6.2h38c3.5,0,6.2,2.8,6.2,6.2
				C67.8,151.5,65,154.3,61.6,154.3z"/>
		</g>
	</g>
	<g>
		<path class="st4" d="M623.2,135.8c-3.9,3.9-9.3,6.1-14.9,6.1c-11.6,0-21.1-9.4-21.1-21.1s9.5-21.1,21.1-21.1
			c5.6,0,11,2.2,14.9,6.1l0.7,0.7l9.2-9.2l-0.7-0.7c-6.4-6.5-15-10.1-24.1-10.1c-18.8,0-34.2,15.3-34.2,34.2
			c0,18.8,15.3,34.2,34.2,34.2c9.1,0,17.7-3.5,24.1-10l0.7-0.7l-9.2-9.3L623.2,135.8z"/>
		<polygon class="st4" points="638.5,155.1 684.7,155.1 684.7,142 651.6,142 651.6,127.4 684.7,127.4 684.7,114.4 651.6,114.4 
			651.6,99.9 684.7,99.9 684.7,86.8 638.5,86.8 		"/>
		<path class="st4" d="M721.4,116.7c-4.6-2.1-9-2.3-10.3-2.3c-4.2,0-8.7-2.3-8.7-7.3c0-5,4.3-7.2,8.7-7.2c3.9,0,8.5,1.9,8.7,7.3l0,1
			h13l0-1c-0.2-11.6-9.5-20.3-21.7-20.3c-10.7,0-21.8,7.6-21.8,20.3c0,8.2,4,14.6,11.4,18.1c4.7,2.1,9.1,2.3,10.3,2.3c0,0,0,0,0,0
			c4.2,0.2,8.7,2.5,8.7,7.3c0,5-4.5,7.2-8.7,7.2c-4.2,0-8.5-2.2-8.7-7.3l0-1h-13.1l0,1c0.2,11.6,9.1,20,21.7,20.3h0
			c5.6,0,11-1.9,15-5.5c4.3-3.8,6.7-9,6.7-14.9C732.7,126.5,728.7,120.1,721.4,116.7z"/>
		<path class="st4" d="M309.7,90c-5.4-2.4-10.9-2.4-11-2.4h-21.4v66.5h7.2v-29.6h14.2c0.1,0,5.6-0.1,11-2.4c6.9-3,10.4-8.4,10.4-16
			C320.1,98.5,316.6,93.1,309.7,90z M298.7,117.3h-14.2V94.8h14.2c4.9,0,14.2,2.4,14.2,11.2C312.9,114.9,303.6,117.3,298.7,117.3z"
			/>
		<path class="st4" d="M357.3,87.9c-18.2,0-33,14.9-33,33.1c0,18.2,14.8,33,33,33c18.3,0,33.1-14.8,33.1-33
			C390.4,102.8,375.5,87.9,357.3,87.9z M357.3,147c-14.3,0-25.9-11.6-25.9-25.9c0-14.3,11.6-25.9,25.9-25.9
			c14.3,0,25.9,11.6,25.9,25.9C383.2,135.3,371.6,147,357.3,147z"/>
		<path class="st4" d="M439.8,106.1c0-7.5-3.5-12.9-10.4-15.9c-5.4-2.4-10.9-2.4-11-2.4h-21.3v66.3h7.2v-29.6h13.5l13.6,29.6h7.9
			l-14-30.4l2.4-0.9C435.7,119.9,439.8,114.3,439.8,106.1z M418.4,117.4h-14.1V95h14.1c4.9,0,14.2,2.3,14.2,11.1
			C432.6,115,423.3,117.4,418.4,117.4z"/>
		<polygon class="st4" points="486,87.8 443.4,87.8 443.4,95 461.1,95 461.1,154.1 468.3,154.1 468.3,95 486,95 		"/>
		<polygon class="st4" points="507.9,87.4 481.3,154.1 489.6,154.1 507.9,108.1 526.3,154.1 534.6,154.1 		"/>
		<polygon class="st4" points="546.5,87.8 539.3,87.8 539.3,154.1 572.7,154.1 572.7,146.9 546.5,146.9 		"/>
	</g>
</g>
</svg>
