<?xml version="1.0" encoding="utf-8"?>
<!-- Generator: Adobe Illustrator 22.1.0, SVG Export Plug-In . SVG Version: 6.00 Build 0)  -->
<svg version="1.1" id="Capa_1" xmlns="http://www.w3.org/2000/svg" xmlns:xlink="http://www.w3.org/1999/xlink" x="0px" y="0px"
	 viewBox="0 0 646 143" style="enable-background:new 0 0 646 143;" xml:space="preserve">
<style type="text/css">
	.st0{fill:#D2A613;}
</style>
<g>
	<g id="XMLID_110_">
		<circle id="XMLID_184_" class="st0" cx="189.2" cy="32.8" r="14.5"/>
		<g id="XMLID_111_">
			<polygon id="XMLID_181_" points="214.9,124.3 189.2,60.9 189.2,60.8 189.2,60.9 189.2,60.8 189.2,60.9 163.5,124.3 176.1,124.3 
				189.2,90.7 202.3,124.3 			"/>
			<path id="XMLID_173_" d="M413.8,60.6c-17.6,0-32,14.3-32,32c0,17.6,14.3,32,32,32c17.6,0,32-14.3,32-32
				C445.8,74.9,431.5,60.6,413.8,60.6z M413.5,113.5c-11.6,0-21-9.4-21-21s9.4-21,21-21s21,9.4,21,21S425.1,113.5,413.5,113.5z"/>
			<path id="XMLID_170_" d="M291.1,63.8v-2.5c0-0.3-0.2-0.5-0.5-0.5h-10.7c-0.3,0-0.5,0.2-0.5,0.5v17.1c0,0,0,0,0,0v18.4
				c0,0.7-0.2,16-15,16.2c-14.9-0.2-15-15.6-15-16.2V64.3h0v-3c0-0.3-0.2-0.5-0.5-0.5h-10.7c-0.3,0-0.5,0.2-0.5,0.5v17.1
				c0,0,0,0.1,0,0.1v18.3c0,11.1,7.1,27.5,26.4,27.9v0c0.1,0,0.2,0,0.3,0c0.1,0,0.2,0,0.3,0v0c19.3-0.4,26.4-16.8,26.4-27.9
				L291.1,63.8L291.1,63.8z"/>
			<g id="XMLID_124_">
				<g>
					<path id="XMLID_17_" d="M511.1,60.8h-41.6c-0.2,0-0.3,0.1-0.3,0.3v10.1c0,0.2,0.1,0.3,0.3,0.3h15.9l0,0h9.8l0,0h15.9
						c0.2,0,0.3-0.1,0.3-0.3V61.2C511.4,61,511.3,60.8,511.1,60.8z"/>
					<path id="XMLID_16_" d="M469.5,87.3c-0.2,0-0.3,0.1-0.3,0.3v3.5v6.6v26.4c0,0.2,0.1,0.3,0.3,0.3h10.1c0.2,0,0.3-0.1,0.3-0.3V98
						h31.2c0.2,0,0.3-0.1,0.3-0.3V87.6c0-0.2-0.1-0.3-0.3-0.3H469.5z"/>
				</g>
			</g>
			<path id="XMLID_121_" d="M552.5,60.8h-10.1c-0.2,0-0.3,0.1-0.3,0.3v63c0,0.2,0.1,0.3,0.3,0.3h10.1c0.2,0,0.3-0.1,0.3-0.3v-63
				C552.8,60.9,552.7,60.8,552.5,60.8z"/>
			<path id="XMLID_117_" d="M634.4,60.8h-10.1c-0.2,0-0.3,0.1-0.3,0.3v44.8l-31.4-44.5v-0.3c0-0.2-0.1-0.3-0.3-0.3h-10.1
				c-0.2,0-0.3,0.1-0.3,0.3v63c0,0.2,0.1,0.3,0.3,0.3h10.1c0.2,0,0.3-0.1,0.3-0.3V79.9l31.3,44.4c0.1,0.1,0.2,0.1,0.3,0.1
				c0,0,0,0.1,0.1,0.1h10.1c0.2,0,0.3-0.1,0.3-0.3v-63C634.7,60.9,634.6,60.8,634.4,60.8z"/>
			<path id="XMLID_114_" d="M359.1,60.8h-41.6c-0.2,0-0.3,0.1-0.3,0.3v10.1c0,0.2,0.1,0.3,0.3,0.3h15.4v52.3c0,0.2,0.1,0.3,0.3,0.3
				h10.2c0.2,0,0.3-0.1,0.3-0.3V71.5h15.4c0.2,0,0.3-0.1,0.3-0.3V61.2C359.4,61,359.2,60.8,359.1,60.8z"/>
		</g>
	</g>
	<g id="XMLID_187_">
		<g>
			<path id="XMLID_35_" d="M22.3,60.6h11.8L48.9,105l14.9-44.4h11.8l10.7,63.7H74.5l-6.8-40.2l-13.5,40.2H43.5L30.1,84.1l-7,40.2
				H11.3L22.3,60.6z"/>
			<path id="XMLID_33_" d="M107.5,60.6h12v63.7h-12V60.6z"/>
		</g>
	</g>
</g>
</svg>
