<?xml version="1.0" encoding="utf-8"?>
<!-- Generator: Adobe Illustrator 22.1.0, SVG Export Plug-In . SVG Version: 6.00 Build 0)  -->
<svg version="1.1" id="Capa_1" xmlns="http://www.w3.org/2000/svg" xmlns:xlink="http://www.w3.org/1999/xlink" x="0px" y="0px"
	 viewBox="0 0 508 364" style="enable-background:new 0 0 508 364;" xml:space="preserve">
<style type="text/css">
	.st0{fill:none;}
	.st1{fill:#FFFFFF;}
	.st2{fill:#D3AE37;}
</style>
<g>
	<path class="st0" d="M431.6,129.8l13.7-64.5c0.6-2.7,0.9-4.7,0.9-5.9c0-2.2-0.5-3.6-1.5-4.3c-1-0.7-2.9-1.1-5.6-1.1
		c-1.8,0-3.3,0.2-4.6,0.4c-1.3,0.3-2.3,0.8-3,1.6c-0.8,0.8-1.4,1.9-2,3.4c-0.5,1.5-1,3.4-1.5,5.8l-8.9,41.9l10.7,16.3
		C431.1,125.6,431.8,127.7,431.6,129.8z"/>
	<path class="st0" d="M311.6,66.2c0.6-3,0.9-5.1,0.9-6.3c0-1.8-0.5-3-1.6-3.7s-3-1-5.7-1h-8.8l-7.9,37.4h9.3c3.3,0,5.7-0.7,7.1-2
		c1.4-1.3,2.4-3.7,3.1-7.2L311.6,66.2z"/>
	<path class="st0" d="M332.6,65.2c-0.1,0.3-0.1,0.6-0.2,1l-3,14.9c-0.7,3.7-1.8,6.7-3.1,9c-1.1,1.9-2.3,3.4-3.5,4.7l31.3-2.2
		L332.6,65.2z"/>
	<path class="st1" d="M67.3,195.5L97.2,53.9h41.2l-3.6,17h-20.6l-4.5,21h19.9l-3.6,17h-19.9l-18.3,86.5H67.3V195.5z"/>
	<path class="st1" d="M146.9,197.3c-4.5,0-8.4-0.2-11.5-0.5c-3.1-0.4-5.7-1-7.7-2.1c-2-1-3.5-2.4-4.4-4.3s-1.3-4.3-1.3-7.4
		c0-3.9,0.7-9.1,2.1-15.6L148,54h20.6l-24,113.4c-0.7,2.9-1.1,5.1-1.1,6.6c0,2,0.6,3.3,1.7,3.9c1.1,0.6,3.1,0.9,5.8,0.9
		c1.8,0,3.3-0.1,4.5-0.4s2.2-0.8,3-1.6c0.8-0.8,1.4-1.9,2-3.4c0.5-1.5,1.1-3.5,1.7-6l24-113.4h20.1l-24,113.4
		c-1.4,6.6-3,11.8-4.6,15.8s-3.7,7-6.4,9c-2.6,2.1-5.9,3.5-9.9,4.1C157.6,196.9,152.6,197.3,146.9,197.3z"/>
	<path class="st1" d="M232,195.5h-40.5l29.9-141.6h40.3l-3.6,17h-19.7l-4.3,20.6h19.2l-3.6,16.3h-19.2l-14.7,69.9h19.9L232,195.5z"
		/>
	<polygon class="st0" points="383.8,169.7 386.6,156.6 375.8,157.4 	"/>
	<path class="st1" d="M300.1,118.7v-0.1c0.7-3.7,2.7-5.2,4.3-5.9c0.6-0.3,1.3-0.4,2.4-0.5l10.6-0.7c1.2-1.3,2.4-2.9,3.5-4.7
		c1.4-2.3,2.4-5.3,3.1-9l3-14.9c0.1-0.3,0.1-0.6,0.2-1l-21.8-28c-0.6,0-1.3,0-1.9,0H274l-29.9,141.6h20.6l14.7-69.9h9.3
		c2.5,0,4.3,0.4,5.3,1.1s1.5,2,1.5,3.8c0,0.7-0.1,1.5-0.2,2.4c-0.1,0.9-0.3,1.9-0.5,3l-12.5,59.7h20.8l11.4-54.4l-11.6-13.1
		C300.5,125.2,299.6,122,300.1,118.7z M292.4,109.3h-9.3l7.9-37.4h8.8c2.7,0,4.7,0.3,5.7,1c1.1,0.7,1.6,1.9,1.6,3.7
		c0,1.2-0.3,3.3-0.9,6.3l-3.6,17.4c-0.7,3.5-1.8,5.9-3.1,7.2C298.1,108.6,295.6,109.3,292.4,109.3z"/>
	<path class="st1" d="M436.4,195.5l24-113.6c1.3-6.3,2-11.3,2-15.1c0-3-0.4-5.4-1.3-7.3c-0.9-1.9-2.3-3.4-4.3-4.5s-4.5-1.8-7.7-2.2
		s-7-0.6-11.4-0.6c-5.9,0-10.7,0.3-14.6,1c-3.9,0.7-7.1,2-9.8,4.1c-2.6,2.1-4.7,5.1-6.4,9c-1.6,3.9-3.1,9.1-4.6,15.7l-3.9,18.5
		l15.2,23.2l8.9-41.9c0.5-2.4,1-4.3,1.5-5.8s1.2-2.6,2-3.4s1.8-1.3,3-1.6c1.3-0.3,2.8-0.4,4.6-0.4c2.7,0,4.6,0.4,5.6,1.1
		s1.5,2.2,1.5,4.3c0,1.2-0.3,3.2-0.9,5.9L426,146.5c0,0.8-0.1,1.6-0.4,2.4c-0.7,2.3-2.1,4-4.2,4.9c-0.9,0.4-1.6,0.6-2.3,0.6
		l-32.8,2.2l-2.8,13l15.2,23.2l6.1-28.9h17.5l-6.6,31.5L436.4,195.5L436.4,195.5L436.4,195.5z"/>
	<path class="st1" d="M116.9,281.4c-2.5-5-2.6-9.9-2.6-10.4v-29.8h8.5V271c0,0,0,3.5,1.7,6.9c2.1,3.9,5.7,5.9,11,5.9s8.9-2,11-5.9
		c1.8-3.4,1.8-6.9,1.8-6.9v-29.8h8.6V271c0,0.5-0.1,5.4-2.6,10.4c-3.5,7-10.2,10.9-18.8,10.9C127,292.3,120.4,288.4,116.9,281.4"/>
	<polygon class="st1" points="212.3,249.7 199.5,249.7 199.5,292.3 191,292.3 191,249.7 178.1,249.7 178.1,241.1 212.3,241.1 	"/>
	<path class="st1" d="M281.6,266.7c0,14.1-11.4,25.5-25.6,25.5c-14.1,0-25.5-11.4-25.5-25.5c0-14.1,11.4-25.6,25.5-25.6
		C270.3,241.1,281.6,252.6,281.6,266.7 M273.1,266.7c0-9.4-7.6-17-17-17s-17,7.6-17,17s7.7,17,17,17
		C265.6,283.7,273.1,276.1,273.1,266.7"/>
	<rect x="301" y="241.1" class="st1" width="34.1" height="8.6"/>
	<polygon class="st1" points="301,262.5 301,292.3 309.6,292.3 309.6,271 335.1,271 335.1,262.5 309.6,262.5 309.6,262.5 	"/>
	<rect x="360.1" y="241.1" class="st1" width="8.5" height="51.1"/>
	<path class="st2" d="M441.8,269.2l-4.5-7.1v9.1l2,2.1c1.4,1.4,2.1,1.3,2.5,1.1c0.1,0,0.2-0.2,0.5-0.4c0.2-0.3,0.5-0.8,0.5-1.8
		C442.8,271.2,442.5,270.2,441.8,269.2z"/>
	<polygon class="st1" points="435.1,241.1 426.6,241.1 426.6,245.6 426.6,258.4 426.6,277.5 401.1,241.1 392.6,241.1 392.6,292.3 
		401.1,292.3 401.1,255.9 426.6,292.3 435.1,292.3 435.1,268 435.1,258.6 	"/>
	<polygon class="st1" points="75.1,265.1 80.1,277.4 80.1,277.4 83.5,285.9 83.5,285.9 85.6,291.1 86.1,292.3 95.3,292.3 
		74.8,241.1 54.4,292.3 63.6,292.3 74.8,264.1 	"/>
	<polygon class="st1" points="435.4,224.4 445.6,212.4 413,212.4 420.9,224.4 	"/>
	<polygon class="st2" points="394.3,222.1 424.3,255.7 424.3,242.8 410.9,222.1 	"/>
	<path class="st2" d="M393.6,195.5l-11.5-17.6l-16.8-25.7l22.6-1.5l31-2.1c0.1,0,0.2-0.1,0.4-0.2s0.6-0.3,0.8-1.1v-0.1
		c0.3-1.2,0-2.4-0.9-3.9l-7.4-11.3l-15.2-23.2l-51.7-79.4c-0.5-0.7-1.1-1.3-1.9-1.6c-0.6-0.3-0.9-0.2-1.1-0.1l-34,14.8
		c-0.2,0.1-0.6,0.3-0.8,1.2c-0.2,1-0.1,2.1,0.4,3.2c0.2,0.5,0.6,1,1.1,1.6l0.2,0.2l4.3,5.5l15.3,19.6l31.6,40.5l-52.2,3.7H307
		c-0.2,0-0.4,0-0.5,0c-0.4,0.3-0.6,1-0.7,1.5c-0.2,1.6,0.2,3,1.4,4.4l8.4,9.5l67.9,76.5h19.5L393.6,195.5z"/>
	<polygon class="st2" points="403.1,210.1 383.6,210.1 394.3,222.1 410.9,222.1 	"/>
	<path class="st1" d="M58,219.9c0-2.7,0.8-5.3,2.1-7.5h-4.2c0-0.2-10.2,12-10.2,12h13c-0.1-0.2-0.1-0.4-0.2-0.5
		C58.1,222.6,58,221.3,58,219.9z"/>
	<path class="st1" d="M91.9,223.9c-0.1,0.2-0.1,0.4-0.2,0.5h295.5l-10.6-12H90.4c1.3,2.2,2.1,4.8,2.1,7.5
		C92.5,221.3,92.3,222.6,91.9,223.9z"/>
	<path class="st2" d="M81.6,210.1c-1.9-1.5-4.3-2.4-6.9-2.4s-5,0.9-6.9,2.4c-2.7,2.1-4.4,5.3-4.4,8.9c0,1.1,0.2,2.1,0.4,3.1
		c1.3,4.7,5.7,8.2,10.9,8.2s9.5-3.5,10.9-8.2c0.3-1,0.4-2,0.4-3.1C86.1,215.4,84.4,212.1,81.6,210.1z"/>
	<g>
		<path class="st1" d="M86.5,336.3h-4.8v-17.6l-8.2,17.6H69l-8.8-18v18h-4.8v-28.7h4.9l10.9,22.3l10.5-22.3h4.9L86.5,336.3
			L86.5,336.3z"/>
		<path class="st1" d="M96.4,312.4v7.2h12v4.8h-12v7.2h14.4v4.8H91.7v-28.7h19.1v4.8L96.4,312.4L96.4,312.4z"/>
		<path class="st1" d="M127.3,307.6V328c0,8.4-8.4,8.4-8.4,8.4h-2.4v-4.8h2.4c3.6,0,3.6-3.6,3.6-3.6v-20.4L127.3,307.6L127.3,307.6z
			"/>
		<path class="st1" d="M162.6,322c0,7.9-6.4,14.3-14.4,14.3c-7.9,0-14.3-6.4-14.3-14.3c0-7.9,6.4-14.3,14.3-14.3
			C156.1,307.6,162.6,314.1,162.6,322z M157.8,322c0-5.3-4.3-9.6-9.6-9.6c-5.2,0-9.6,4.3-9.6,9.6c0,5.2,4.3,9.6,9.6,9.6
			C153.5,331.5,157.8,327.2,157.8,322z"/>
		<path class="st1" d="M184.3,336.3l-7.5-12h-2.7v12h-4.8v-16.7h4.6l-4.6-7.2v-4.8h9.6c0,0,9.6,0,9.6,8.4c0,5.1-3.5,7.1-6.3,7.9
			l7.8,12.5L184.3,336.3L184.3,336.3z M179.4,319.6c1.3-0.1,4.2-0.7,4.2-3.6c0-3.6-4.8-3.6-4.8-3.6h-3.9L179.4,319.6z"/>
		<path class="st1" d="M212.6,312.4v7.2h11.9v4.8h-11.9v7.2H227v4.8h-19.1v-28.7H227v4.8L212.6,312.4L212.6,312.4z"/>
		<path class="st1" d="M232.6,328h4.8c0.1,2.4,2.1,3.6,4.2,3.6c2.2,0,4.2-1.3,4.2-3.6c0-2.4-2.3-3.5-4.2-3.6c-0.2,0-2.2,0-4.3-0.9
			c-3-1.4-4.7-4-4.7-7.4c0-5.1,4.3-8.4,9-8.4c5,0,8.9,3.5,8.9,8.4h-4.8c-0.1-2.4-2-3.6-4.2-3.6c-2.3,0-4.2,1.3-4.2,3.6
			c0,2.4,2.1,3.6,4.2,3.6c0.2,0,2.2,0,4.3,0.9c3,1.4,4.7,4,4.7,7.4c0,5.1-4.3,8.4-8.9,8.4C236.6,336.2,232.6,333,232.6,328z"/>
		<path class="st1" d="M288.8,316c0,8.4-9.6,8.4-9.6,8.4h-4.8v12h-4.8v-28.8h9.6C279.1,307.6,288.8,307.6,288.8,316z M284,316
			c0-3.6-4.8-3.6-4.8-3.6h-4.8v7.2h4.8C279.1,319.6,284,319.6,284,316z"/>
		<path class="st1" d="M324.1,322c0,7.9-6.4,14.3-14.3,14.3c-7.9,0-14.3-6.4-14.3-14.3c0-7.9,6.4-14.3,14.3-14.3
			C317.6,307.6,324.1,314.1,324.1,322z M319.3,322c0-5.3-4.3-9.6-9.6-9.6c-5.2,0-9.6,4.3-9.6,9.6c0,5.2,4.3,9.6,9.6,9.6
			C315,331.5,319.3,327.2,319.3,322z"/>
		<path class="st1" d="M330.8,328h4.8c0.1,2.4,2,3.6,4.2,3.6s4.2-1.3,4.2-3.6c0-2.4-2.3-3.5-4.2-3.6c-0.2,0-2.2,0-4.3-0.9
			c-3-1.4-4.7-4-4.7-7.4c0-5.1,4.3-8.4,9-8.4c5,0,8.9,3.5,8.9,8.4h-4.8c-0.1-2.4-2-3.6-4.2-3.6c-2.3,0-4.2,1.3-4.2,3.6
			c0,2.4,2,3.6,4.2,3.6c0.2,0,2.2,0,4.3,0.9c3,1.4,4.7,4,4.7,7.4c0,5.1-4.3,8.4-8.9,8.4C334.8,336.2,330.9,333,330.8,328z"/>
		<path class="st1" d="M355.4,307.6h4.8v28.7h-4.8V307.6z"/>
		<path class="st1" d="M385.9,328c0,8.4-9.6,8.4-9.6,8.4h-9.6v-28.7h9.6c0,0,9.6,0,9.6,8.4c0,6-4.8,6-4.8,6
			C385.9,322,385.9,328,385.9,328z M371.5,319.6h4.8c0,0,4.8,0,4.8-3.6s-4.8-3.6-4.8-3.6h-4.8V319.6z M381.1,328
			c0-3.6-4.8-3.6-4.8-3.6h-4.8v7.2h4.8C376.3,331.6,381.1,331.6,381.1,328z"/>
		<path class="st1" d="M407,331.5v4.8h-15.4v-28.7h4.8v23.9H407L407,331.5z"/>
		<path class="st1" d="M418.8,312.4v7.2h11.9v4.8h-11.9v7.2h14.4v4.8h-19.1v-28.7h19.1v4.8L418.8,312.4L418.8,312.4z"/>
	</g>
</g>
</svg>
