<?xml version="1.0" encoding="utf-8"?>
<!-- Generator: Adobe Illustrator 22.1.0, SVG Export Plug-In . SVG Version: 6.00 Build 0)  -->
<svg version="1.1" id="Capa_1" xmlns="http://www.w3.org/2000/svg" xmlns:xlink="http://www.w3.org/1999/xlink" x="0px" y="0px"
	 viewBox="0 0 386 153.1" style="enable-background:new 0 0 386 153.1;" xml:space="preserve">
<style type="text/css">
	.st0{fill:#CFAD23;}
	.st1{fill:#020002;}
	.st2{fill:#FFFFFF;}
</style>
<g>
	<g id="XMLID_177_">
		<circle id="XMLID_701_" class="st0" cx="881.4" cy="444.2" r="21.5"/>
		<g id="XMLID_200_">
			<polygon id="XMLID_328_" class="st1" points="919.7,580.6 881.4,486.1 881.4,486 881.4,486 881.4,486 881.4,486.1 843.1,580.6 
				861.8,580.6 881.4,530.6 901,580.6 			"/>
			<path id="XMLID_325_" class="st1" d="M1216.2,485.7c-26.3,0-47.6,21.3-47.6,47.6c0,26.3,21.3,47.6,47.6,47.6
				c26.3,0,47.6-21.3,47.6-47.6C1263.8,507,1242.4,485.7,1216.2,485.7z M1215.7,564.5c-17.2,0-31.2-14-31.2-31.2s14-31.2,31.2-31.2
				s31.2,14,31.2,31.2S1232.9,564.5,1215.7,564.5z"/>
			<path id="XMLID_216_" class="st1" d="M1033.3,490.3v-3.7c0-0.4-0.3-0.7-0.7-0.7h-16c-0.4,0-0.7,0.3-0.7,0.7v25.4c0,0,0,0,0,0
				v27.4c0,1-0.3,23.8-22.4,24.2c-22.1-0.3-22.4-23.2-22.4-24.2v-48.4h-0.1v-4.4c0-0.4-0.3-0.7-0.7-0.7h-16c-0.4,0-0.7,0.3-0.7,0.7
				v25.4c0,0.1,0.1,0.1,0.1,0.2v27.3c0,16.5,10.5,41,39.3,41.5v0.1c0.2,0,0.3,0,0.5,0c0.2,0,0.3,0,0.5,0v-0.1
				c28.8-0.6,39.3-25,39.3-41.5L1033.3,490.3L1033.3,490.3z"/>
			<g id="XMLID_204_">
				<g>
					<path id="XMLID_19_" class="st1" d="M1361.1,486h-62c-0.3,0-0.5,0.2-0.5,0.5v15c0,0.3,0.2,0.5,0.5,0.5h23.7l0,0h14.6l0,0h23.7
						c0.3,0,0.5-0.2,0.5-0.5v-15C1361.5,486.2,1361.3,486,1361.1,486z"/>
					<path id="XMLID_18_" class="st1" d="M1299.1,525.4c-0.3,0-0.5,0.2-0.5,0.5v5.2v9.8v39.3c0,0.3,0.2,0.5,0.5,0.5h15
						c0.3,0,0.5-0.2,0.5-0.5v-38.9h46.5c0.3,0,0.5-0.2,0.5-0.5v-15c0-0.3-0.2-0.5-0.5-0.5H1299.1z"/>
				</g>
			</g>
			<path id="XMLID_203_" class="st1" d="M1422.8,485.9h-15c-0.3,0-0.5,0.2-0.5,0.5v93.9c0,0.3,0.2,0.5,0.5,0.5h15
				c0.3,0,0.5-0.2,0.5-0.5v-93.9C1423.3,486.1,1423.1,485.9,1422.8,485.9z"/>
			<path id="XMLID_202_" class="st1" d="M1544.8,485.9h-15c-0.3,0-0.5,0.2-0.5,0.5v66.7l-46.8-66.3v-0.4c0-0.3-0.2-0.5-0.5-0.5h-15
				c-0.3,0-0.5,0.2-0.5,0.5v93.9c0,0.3,0.2,0.5,0.5,0.5h15c0.3,0,0.5-0.2,0.5-0.5v-65.8l46.7,66.1c0.1,0.2,0.3,0.2,0.5,0.1
				c0,0,0,0.1,0.1,0.1h15c0.3,0,0.5-0.2,0.5-0.5v-93.9C1545.3,486.1,1545.1,485.9,1544.8,485.9z"/>
			<path id="XMLID_201_" class="st1" d="M1134.5,486h-62c-0.3,0-0.5,0.2-0.5,0.5v15c0,0.3,0.2,0.5,0.5,0.5h22.9v77.9
				c0,0.3,0.2,0.5,0.5,0.5h15.3c0.3,0,0.5-0.2,0.5-0.5v-77.9h22.9c0.3,0,0.5-0.2,0.5-0.5v-15C1135,486.2,1134.8,486,1134.5,486z"/>
		</g>
	</g>
	<g>
		<path class="st1" d="M892.1,667.2h-7.6v-27.8l-13,27.8h-7.1l-13.8-28.4v28.4h-7.6v-45.3h7.7l17.2,35.2l16.5-35.2h7.7V667.2z"/>
		<path class="st1" d="M916.4,629.5v11.3H939v7.5h-22.6v11.3H939v7.6h-30.2v-45.3H939v7.6H916.4z"/>
		<path class="st1" d="M972.9,621.9V654c0,13.2-13.3,13.2-13.3,13.2h-3.8v-7.6h3.8c5.7,0,5.7-5.6,5.7-5.6v-24.6h-9.4v-7.6H972.9z"/>
		<path class="st1" d="M1036.4,644.6c0,12.5-10.1,22.6-22.6,22.6c-12.5,0-22.6-10.1-22.6-22.6c0-12.5,10.1-22.6,22.6-22.6
			C1026.4,621.9,1036.4,632.1,1036.4,644.6z M1028.9,644.6c0-8.3-6.7-15.1-15.1-15.1c-8.3,0-15.1,6.7-15.1,15.1
			c0,8.3,6.8,15.1,15.1,15.1C1022.2,659.6,1028.9,652.8,1028.9,644.6z"/>
		<path class="st1" d="M1065.9,648.3h-6.1v18.9h-7.6v-45.3h15.1c0,0,15.1,0,15.1,13.2c0,7.3-4.7,10.5-8.7,12l9.2,20h-8.3
			L1065.9,648.3z M1059.8,640.8h7.5c0,0,7.6,0,7.6-5.7c0-5.6-7.6-5.6-7.6-5.6h-7.5V640.8z"/>
		<path class="st1" d="M1136.3,629.5v11.3h22.6v7.5h-22.6v11.3h22.6v7.6h-30.2v-45.3h30.2v7.6H1136.3z"/>
		<path class="st1" d="M1175.8,654h7.6c0.1,3.8,3.2,5.6,6.6,5.6c3.5,0,6.6-2.1,6.6-5.6c0-3.8-3.6-5.6-6.6-5.7c-0.4,0-3.5,0-6.8-1.5
			c-4.7-2.2-7.4-6.3-7.4-11.7c0-8,6.9-13.2,14.2-13.2c7.8,0,14,5.5,14.1,13.2h-7.5c-0.1-3.8-3.2-5.6-6.6-5.6c-3.6,0-6.6,2-6.6,5.6
			c0,3.8,3.2,5.7,6.6,5.7c0.3,0,3.5,0,6.7,1.5c4.8,2.2,7.4,6.3,7.4,11.7c0,8.1-6.8,13.2-14.1,13.2
			C1182.2,667,1175.9,661.9,1175.8,654z"/>
		<path class="st1" d="M1280.2,635.2c0,13.3-15.1,13.3-15.1,13.3h-7.6v18.9h-7.6v-45.4h15.1C1265,621.9,1280.2,621.9,1280.2,635.2z
			 M1272.6,635.2c0-5.7-7.6-5.7-7.6-5.7h-7.6v11.4h7.6C1265,640.9,1272.6,640.9,1272.6,635.2z"/>
		<path class="st1" d="M1336.5,644.6c0,12.5-10.1,22.6-22.6,22.6c-12.5,0-22.6-10.1-22.6-22.6c0-12.5,10.1-22.6,22.6-22.6
			C1326.4,621.9,1336.5,632.1,1336.5,644.6z M1329,644.6c0-8.3-6.7-15.1-15.1-15.1c-8.3,0-15.1,6.7-15.1,15.1
			c0,8.3,6.8,15.1,15.1,15.1C1322.2,659.6,1329,652.8,1329,644.6z"/>
		<path class="st1" d="M1355,654h7.6c0.1,3.8,3.2,5.6,6.6,5.6c3.5,0,6.6-2.1,6.6-5.6c0-3.8-3.6-5.6-6.6-5.7c-0.4,0-3.5,0-6.8-1.5
			c-4.7-2.2-7.4-6.3-7.4-11.7c0-8,6.9-13.2,14.2-13.2c7.8,0,14,5.5,14.1,13.2h-7.5c-0.1-3.8-3.2-5.6-6.6-5.6c-3.6,0-6.6,2-6.6,5.6
			c0,3.8,3.2,5.7,6.6,5.7c0.3,0,3.5,0,6.7,1.5c4.8,2.2,7.4,6.3,7.4,11.7c0,8.1-6.8,13.2-14.1,13.2C1361.3,667,1355.1,661.9,1355,654
			z"/>
		<path class="st1" d="M1398.9,621.9h7.6v45.3h-7.6V621.9z"/>
		<path class="st1" d="M1454.9,654c0,13.2-15.1,13.2-15.1,13.2h-15.1V622h15.1c0,0,15.1,0,15.1,13.2c0,9.4-7.6,9.4-7.6,9.4
			C1454.9,644.6,1454.9,654,1454.9,654z M1432.3,640.8h7.6c0,0,7.5,0,7.5-5.6c0-5.7-7.5-5.7-7.5-5.7h-7.6V640.8z M1447.3,654
			c0-5.6-7.5-5.6-7.5-5.6h-7.6v11.3h7.6C1439.8,659.7,1447.3,659.7,1447.3,654z"/>
		<path class="st1" d="M1495.1,659.6v7.6h-24.3v-45.3h7.6v37.7H1495.1z"/>
		<path class="st1" d="M1519.7,629.5v11.3h22.6v7.5h-22.6v11.3h22.6v7.6h-30.2v-45.3h30.2v7.6H1519.7z"/>
	</g>
</g>
<g>
	<g id="XMLID_186_">
		<circle id="XMLID_718_" class="st0" cx="33.1" cy="25" r="11"/>
		<g id="XMLID_209_">
			<polygon id="XMLID_716_" class="st2" points="52.7,94.7 33.1,46.4 33.1,46.4 33.1,46.4 33.1,46.4 33.1,46.4 13.5,94.7 23.1,94.7 
				33.1,69.2 43.1,94.7 			"/>
			<path id="XMLID_713_" class="st2" d="M204.2,46.2c-13.4,0-24.3,10.9-24.3,24.3c0,13.4,10.9,24.3,24.3,24.3
				c13.4,0,24.3-10.9,24.3-24.3C228.5,57.1,217.6,46.2,204.2,46.2z M204,86.5c-8.8,0-16-7.1-16-16s7.1-16,16-16s16,7.1,16,16
				S212.8,86.5,204,86.5z"/>
			<path id="XMLID_712_" class="st2" d="M110.8,48.6v-1.9c0-0.2-0.2-0.4-0.4-0.4h-8.2c-0.2,0-0.4,0.2-0.4,0.4v13c0,0,0,0,0,0v14
				c0,0.5-0.1,12.2-11.5,12.4C79.1,85.9,79,74.3,79,73.8V49h0v-2.3c0-0.2-0.2-0.4-0.4-0.4h-8.2c-0.2,0-0.4,0.2-0.4,0.4v13
				c0,0,0,0.1,0,0.1v14c0,8.4,5.4,20.9,20.1,21.2v0c0.1,0,0.2,0,0.2,0c0.1,0,0.2,0,0.2,0v0c14.7-0.3,20.1-12.8,20.1-21.2L110.8,48.6
				L110.8,48.6z"/>
			<g id="XMLID_704_">
				<g>
					<path id="XMLID_17_" class="st2" d="M278.3,46.4h-31.7c-0.1,0-0.2,0.1-0.2,0.2v7.7c0,0.1,0.1,0.2,0.2,0.2h12.1l0,0h7.5l0,0
						h12.1c0.1,0,0.2-0.1,0.2-0.2v-7.7C278.5,46.5,278.4,46.4,278.3,46.4z"/>
					<path id="XMLID_16_" class="st2" d="M246.6,66.6c-0.1,0-0.2,0.1-0.2,0.2v2.6v5v20.1c0,0.1,0.1,0.2,0.2,0.2h7.7
						c0.1,0,0.2-0.1,0.2-0.2V74.7h23.8c0.1,0,0.2-0.1,0.2-0.2v-7.7c0-0.1-0.1-0.2-0.2-0.2H246.6z"/>
				</g>
			</g>
			<path id="XMLID_702_" class="st2" d="M309.8,46.3h-7.7c-0.1,0-0.2,0.1-0.2,0.2v48c0,0.1,0.1,0.2,0.2,0.2h7.7
				c0.1,0,0.2-0.1,0.2-0.2v-48C310.1,46.4,310,46.3,309.8,46.3z"/>
			<path id="XMLID_212_" class="st2" d="M372.2,46.3h-7.7c-0.1,0-0.2,0.1-0.2,0.2v34.1l-23.9-33.9v-0.2c0-0.1-0.1-0.2-0.2-0.2h-7.7
				c-0.1,0-0.2,0.1-0.2,0.2v48c0,0.1,0.1,0.2,0.2,0.2h7.7c0.1,0,0.2-0.1,0.2-0.2V60.9l23.8,33.8c0.1,0.1,0.2,0.1,0.3,0.1
				c0,0,0,0,0,0h7.7c0.1,0,0.2-0.1,0.2-0.2v-48C372.4,46.4,372.3,46.3,372.2,46.3z"/>
			<path id="XMLID_210_" class="st2" d="M162.5,46.4h-31.7c-0.1,0-0.2,0.1-0.2,0.2v7.7c0,0.1,0.1,0.2,0.2,0.2h11.7v39.8
				c0,0.1,0.1,0.2,0.2,0.2h7.8c0.1,0,0.2-0.1,0.2-0.2V54.6h11.7c0.1,0,0.2-0.1,0.2-0.2v-7.7C162.7,46.5,162.6,46.4,162.5,46.4z"/>
		</g>
	</g>
	<g>
		<path class="st2" d="M38.6,139h-3.9v-14.2L28.1,139h-3.6l-7.1-14.5V139h-3.9v-23.2h3.9l8.8,18l8.4-18h3.9V139z"/>
		<path class="st2" d="M51,119.7v5.8h11.6v3.8H51v5.8h11.6v3.9H47.1v-23.1h15.4v3.9H51z"/>
		<path class="st2" d="M79.9,115.8v16.4c0,6.7-6.8,6.7-6.8,6.7h-1.9v-3.9h1.9c2.9,0,2.9-2.9,2.9-2.9v-12.6h-4.8v-3.9H79.9z"/>
		<path class="st2" d="M112.4,127.4c0,6.4-5.2,11.5-11.6,11.5c-6.4,0-11.5-5.2-11.5-11.5c0-6.4,5.2-11.6,11.5-11.6
			C107.2,115.9,112.4,121.1,112.4,127.4z M108.5,127.4c0-4.3-3.4-7.7-7.7-7.7c-4.2,0-7.7,3.4-7.7,7.7c0,4.2,3.5,7.7,7.7,7.7
			C105.1,135.1,108.5,131.7,108.5,127.4z"/>
		<path class="st2" d="M127.4,129.4h-3.1v9.6h-3.9v-23.1h7.7c0,0,7.7,0,7.7,6.7c0,3.7-2.4,5.4-4.5,6.1l4.7,10.2h-4.3L127.4,129.4z
			 M124.3,125.5h3.8c0,0,3.9,0,3.9-2.9c0-2.9-3.9-2.9-3.9-2.9h-3.8V125.5z"/>
		<path class="st2" d="M163.4,119.7v5.8H175v3.8h-11.6v5.8H175v3.9h-15.4v-23.1H175v3.9H163.4z"/>
		<path class="st2" d="M183.6,132.3h3.9c0.1,1.9,1.7,2.9,3.4,2.9c1.8,0,3.4-1.1,3.4-2.9c0-2-1.8-2.8-3.4-2.9c-0.2,0-1.8,0-3.5-0.8
			c-2.4-1.1-3.8-3.2-3.8-6c0-4.1,3.5-6.7,7.2-6.7c4,0,7.1,2.8,7.2,6.7h-3.8c-0.1-1.9-1.6-2.9-3.4-2.9c-1.8,0-3.4,1-3.4,2.9
			c0,1.9,1.7,2.9,3.4,2.9c0.2,0,1.8,0,3.4,0.8c2.4,1.1,3.8,3.2,3.8,6c0,4.1-3.5,6.7-7.2,6.7C186.8,138.9,183.7,136.3,183.6,132.3z"
			/>
		<path class="st2" d="M236.9,122.6c0,6.8-7.7,6.8-7.7,6.8h-3.9v9.6h-3.9v-23.2h7.7C229.2,115.9,236.9,115.9,236.9,122.6z
			 M233.1,122.6c0-2.9-3.9-2.9-3.9-2.9h-3.9v5.8h3.9C229.2,125.6,233.1,125.6,233.1,122.6z"/>
		<path class="st2" d="M265.7,127.4c0,6.4-5.2,11.5-11.6,11.5c-6.4,0-11.5-5.2-11.5-11.5c0-6.4,5.2-11.6,11.5-11.6
			C260.6,115.9,265.7,121.1,265.7,127.4z M261.9,127.4c0-4.3-3.4-7.7-7.7-7.7c-4.2,0-7.7,3.4-7.7,7.7c0,4.2,3.5,7.7,7.7,7.7
			C258.4,135.1,261.9,131.7,261.9,127.4z"/>
		<path class="st2" d="M275.1,132.3h3.9c0.1,1.9,1.7,2.9,3.4,2.9c1.8,0,3.4-1.1,3.4-2.9c0-2-1.8-2.8-3.4-2.9c-0.2,0-1.8,0-3.5-0.8
			c-2.4-1.1-3.8-3.2-3.8-6c0-4.1,3.5-6.7,7.2-6.7c4,0,7.1,2.8,7.2,6.7h-3.8c-0.1-1.9-1.6-2.9-3.4-2.9c-1.8,0-3.4,1-3.4,2.9
			c0,1.9,1.7,2.9,3.4,2.9c0.2,0,1.8,0,3.4,0.8c2.4,1.1,3.8,3.2,3.8,6c0,4.1-3.5,6.7-7.2,6.7C278.4,138.9,275.2,136.3,275.1,132.3z"
			/>
		<path class="st2" d="M297.6,115.9h3.9V139h-3.9V115.9z"/>
		<path class="st2" d="M326.2,132.3c0,6.7-7.7,6.7-7.7,6.7h-7.7v-23.1h7.7c0,0,7.7,0,7.7,6.7c0,4.8-3.9,4.8-3.9,4.8
			C326.2,127.5,326.2,132.3,326.2,132.3z M314.7,125.5h3.9c0,0,3.8,0,3.8-2.9c0-2.9-3.8-2.9-3.8-2.9h-3.9V125.5z M322.4,132.3
			c0-2.9-3.8-2.9-3.8-2.9h-3.9v5.8h3.9C318.5,135.2,322.4,135.2,322.4,132.3z"/>
		<path class="st2" d="M346.8,135.1v3.9h-12.4v-23.1h3.9v19.3H346.8z"/>
		<path class="st2" d="M359.4,119.7v5.8h11.6v3.8h-11.6v5.8h11.6v3.9h-15.4v-23.1h15.4v3.9H359.4z"/>
	</g>
</g>
</svg>
