<?xml version="1.0" encoding="utf-8"?>
<!-- Generator: Adobe Illustrator 22.1.0, SVG Export Plug-In . SVG Version: 6.00 Build 0)  -->
<svg version="1.1" id="Capa_1" xmlns="http://www.w3.org/2000/svg" xmlns:xlink="http://www.w3.org/1999/xlink" x="0px" y="0px"
	 viewBox="0 0 200 200" style="enable-background:new 0 0 200 200;" xml:space="preserve">
<style type="text/css">
	.st0{fill:#999999;}
</style>
<g>
	<path class="st0" d="M153.8,86c-1.4-1.3-2.7-2.7-3.8-3.7c2-1.6,4-3,5.7-4.7c1.5-1.6,1.2-3.8-0.4-5c-2.6-1.9-5.6-2.1-8.7-1.9
		c-2.6,0.2-3.1,2.4-3.7,4.6c-3.3-3.2-6.5-6.2-9.5-9.2c-3.2-3.2-7.1-4.7-11.6-4.7c-13,0.1-26,0-39,0c-4.4,0-8.1,1.5-11.3,4.5
		c-2.8,2.7-5.5,5.3-8.3,8c-0.5,0.4-1,0.8-1.7,1.4c-0.3-2.8-1.4-4.7-4.1-4.6c-2.4,0.1-4.9,0.4-7.1,1.2c-2.7,1-3.3,3.8-1.3,5.9
		c1.6,1.7,3.6,2.9,5.6,4.4c-1.3,1.2-2.8,2.6-4.3,4.1c-4.4,4.5-6.9,9.9-6.9,16.2c-0.1,4.5-0.3,9.1,0.1,13.6c0.2,2.7,0.8,5.7,2.1,8
		c0.7,1.2,1.2,2.4,1.4,3.6v5.6c0,2.8,2.3,5.1,5.1,5.1h10.4c2.8,0,5.1-2.3,5.1-5.1v-1.7h69.1v1.5c0,2.8,2.3,5.1,5.1,5.1h10.4
		c2.8,0,5.1-2.3,5.1-5.1v-5.9c0.7-1.6,1.7-3.2,2.6-4.4c0.9-1.2,1.2-3.1,1.3-4.7c0.2-4.9,0.1-9.7,0.2-14.6
		C161.3,96.7,158.8,90.9,153.8,86z M75,70.9c3-2.5,3.7-2.5,6.1-3.2c0.7-0.2,1.5-0.1,2.3-0.1c12.5,0,25.1,0,37.6,0
		c3.5,0,6.4,1.1,8.9,3.6c3.5,3.5,7.1,6.9,10.6,10.3c0.5,0.5,0.9,1,1.6,1.7H63.5C67.1,79.3,70.6,74.7,75,70.9z M48.2,98
		c0.9-3.8,4.6-5.9,8.3-4.6c4.4,1.6,8.4,3.8,11.6,7.2c2.6,2.7,2.1,4.5-1.6,5.3c-2.4,0.5-5,0.5-7.2,0.7c-2.1-0.1-4-0.1-5.9-0.4
		C49.6,105.7,47.2,101.9,48.2,98z M58.8,124.3c-3.3-0.1-6.5-2.8-7-5.3c-0.6-2.8,0.6-4.3,3.4-4.3c2.9,0,5.8,0,8.7,0
		c0.6,0,1.5,0.1,1.9,0.5c2.6,2.8,5,5.7,8,9.1C68.3,124.4,63.6,124.5,58.8,124.3z M121.6,124.1c-0.5,0.1-1.1,0.2-1.6,0.2
		c-11.8,0-23.7,0.1-35.5,0c-4.3,0-6.7-2.5-7.1-6.7h49.5C126.8,121.1,124.8,123.5,121.6,124.1z M126,110.8c-1.1,1.1-3,1.9-4.5,2
		c-12.8,0.2-25.7,0.1-38.5,0.1c-2.4,0-4.4-1.1-5.4-3.1c-1.2-2.4-1.9-5-2.9-7.9h54.6C129.2,105.2,128.4,108.4,126,110.8z M153.2,119
		c-0.5,2.5-3.8,5.2-7,5.3c-4.7,0.2-9.5,0-15,0c2.9-3.4,5.4-6.3,8-9.1c0.4-0.4,1.3-0.5,1.9-0.5c2.9-0.1,5.8,0,8.7,0
		C152.6,114.7,153.8,116.2,153.2,119z M151.4,106.2c-2.1,0.4-4.2,0.3-6.8,0.5c-2.3-0.3-5-0.4-7.6-1s-3.1-2.2-1.3-4.3
		c3.6-4.1,8.2-6.8,13.4-8.2c3.2-0.9,6.6,1.7,7.3,5.1C157,101.8,154.8,105.5,151.4,106.2z"/>
	<g>
		<path class="st0" d="M188.3,92.9c-1.1-1-2.1-2.1-2.9-2.9c1.6-1.3,3.1-2.3,4.4-3.6c1.1-1.2,0.9-2.9-0.3-3.9c-2-1.5-4.4-1.6-6.8-1.4
			c-2,0.2-2.4,1.8-2.9,3.6c-2.6-2.5-5-4.8-7.4-7.1c-2.5-2.4-5.5-3.7-9-3.6c-1.1,0-2.2,0-3.2,0c0,0.2,0.1,0.5,0.1,0.7
			c0.1,1.4-0.2,2.8-0.9,4c1.2,0,2.3,0,3.5,0c2.7,0,4.9,0.8,6.8,2.8c2.7,2.7,5.5,5.3,8.2,8c0.4,0.4,0.7,0.8,1.2,1.3h-17.3
			c2,3.9,3,8.2,3,12.9c0,0.4,0,0.9,0,1.3h4.4c0.1,2.7-0.5,5.1-2.4,7c-0.5,0.5-1.2,0.9-2,1.2c0,1.4,0,2.7-0.1,4.1h2.8
			c-0.1,2.4-1.3,4.2-3.4,4.9c-0.3,1.2-0.8,2.2-1.5,3c-0.7,1-1.4,2-1.9,3v0.1h14.1v1.2c0,2.2,1.8,4,4,4h8c2.2,0,4-1.8,4-4v-4.6
			c0.5-1.2,1.3-2.4,2-3.4c0.7-0.9,0.9-2.4,1-3.6c0.2-3.7,0.1-7.5,0.1-11.3C194.1,101.2,192.1,96.7,188.3,92.9z M187.8,118.4
			c-0.4,1.9-2.9,4-5.4,4.1c-3.7,0.1-7.3,0-11.6,0c2.3-2.6,4.2-4.9,6.2-7c0.3-0.3,1-0.4,1.5-0.4c2.2,0,4.5,0,6.7,0
			C187.4,115.1,188.3,116.2,187.8,118.4z M186.4,108.5c-1.6,0.3-3.2,0.3-5.2,0.4c-1.7-0.2-3.9-0.3-5.9-0.8s-2.4-1.7-1-3.3
			c2.8-3.2,6.3-5.2,10.3-6.4c2.5-0.7,5.1,1.3,5.6,3.9C190.8,105.1,189.1,108,186.4,108.5z"/>
	</g>
	<g>
		<path class="st0" d="M9.8,106.6c0,3.8,0,7.5,0.1,11.3c0,1.2,0.3,2.7,1,3.6c0.7,1,1.5,2.2,2,3.4v4.6c0,2.2,1.8,4,4,4h8
			c2.2,0,4-1.8,4-4v-1.2H43v-0.1c-0.5-1-1.2-2.1-1.9-3c-0.6-0.8-1.1-1.8-1.5-3c-2.1-0.7-3.3-2.4-3.4-4.9H39c0-1.4-0.1-2.7-0.1-4.1
			c-0.7-0.3-1.4-0.7-2-1.2c-1.9-1.8-2.5-4.3-2.4-7h4.4c0-0.4,0-0.9,0-1.3c-0.1-4.7,0.9-9,3-12.9H24.6c0.5-0.6,0.9-1,1.2-1.3
			c2.7-2.7,5.5-5.3,8.2-8c1.9-1.9,4.1-2.8,6.8-2.8c1.2,0,2.3,0,3.5,0c-0.7-1.2-1-2.6-0.9-4c0-0.2,0.1-0.5,0.1-0.7
			c-1.1,0-2.2,0-3.2,0c-3.5,0-6.5,1.2-9,3.6c-2.4,2.3-4.8,4.6-7.4,7.1C23.4,83,23,81.3,21,81.1c-2.4-0.2-4.7,0-6.8,1.4
			c-1.2,0.9-1.5,2.7-0.3,3.9c1.3,1.3,2.8,2.4,4.4,3.6c-0.8,0.8-1.8,1.8-2.9,2.9C11.7,96.7,9.8,101.2,9.8,106.6z M18.7,115.1
			c2.2,0,4.5,0,6.7,0c0.5,0,1.2,0.1,1.5,0.4c2,2.2,3.9,4.4,6.2,7c-4.2,0-7.9,0.1-11.6,0c-2.5-0.1-5-2.2-5.4-4.1
			C15.6,116.2,16.5,115.1,18.7,115.1z M13.6,102.4c0.5-2.6,3.1-4.6,5.6-3.9c4,1.1,7.6,3.2,10.3,6.4c1.4,1.6,1,2.8-1,3.3
			s-4.2,0.6-5.9,0.8c-2-0.1-3.6-0.1-5.2-0.4C14.7,108,13.1,105.1,13.6,102.4z"/>
	</g>
</g>
</svg>
