<?xml version="1.0" encoding="utf-8"?>
<!-- Generator: Adobe Illustrator 22.1.0, SVG Export Plug-In . SVG Version: 6.00 Build 0)  -->
<svg version="1.1" id="Capa_1" xmlns="http://www.w3.org/2000/svg" xmlns:xlink="http://www.w3.org/1999/xlink" x="0px" y="0px"
	 viewBox="0 0 200 200" style="enable-background:new 0 0 200 200;" xml:space="preserve">
<style type="text/css">
	.st0{fill:#5C5B5C;}
</style>
<g>
	<g id="_x32_ArAfg.tif_1_">
		<g>
			<g>
				<path class="st0" d="M86.3,77.3c1.1-1.3,2-2.6,3.2-3.7c5.8-5.9,11.6-11.8,17.5-17.5c7.6-7.4,16.6-9.7,26.5-6.1
					c10,3.6,16.2,10.9,17.7,21.7c1.1,8-1.3,15-6.9,20.8c-6,6.2-12.1,12.4-18.4,18.4c-9.9,9.6-25.9,9.4-35.5-0.3
					c-1.8-1.8-2.4-4-1.6-6.4s2.6-3.8,5.2-4c1.9-0.2,3.5,0.6,5,1.9c4.5,4.1,10.5,5,15.6,2.2c1.2-0.6,2.3-1.5,3.2-2.4
					c5.9-5.8,11.7-11.6,17.5-17.4c5.6-5.6,5.4-13.8-0.3-19.5c-5.7-5.7-13.9-5.8-19.5-0.2c-4.5,4.4-8.9,8.9-13.4,13.4
					c-0.6,0.6-1.1,0.8-2,0.5c-4.5-1.4-9.1-1.7-13.8-0.8C86.4,77.6,86.4,77.5,86.3,77.3z"/>
			</g>
			<g>
				<path class="st0" d="M113.8,122.3c-1.1,1.4-2.1,2.7-3.2,3.8c-5.9,6-11.8,12.1-17.9,17.9c-7.6,7.2-16.6,9.4-26.5,5.8
					s-16-10.9-17.5-21.5c-1.1-8.1,1.4-15.2,7.1-21.1c5.9-6.1,11.9-12.1,18-18c9.9-9.6,25.7-9.6,35.5,0c2.6,2.6,2.8,6.3,0.4,8.7
					c-2.4,2.5-6,2.5-8.7,0c-5.7-5.3-13.6-5.1-19.1,0.4c-5.7,5.7-11.5,11.4-17.2,17.2c-5.6,5.6-5.5,13.8,0.1,19.5
					c5.7,5.7,13.9,5.9,19.6,0.2c4.5-4.4,8.9-8.9,13.4-13.3c0.4-0.4,1.1-0.7,1.5-0.5c4.5,1.3,9.1,1.7,13.8,0.9
					C113.3,122.2,113.4,122.3,113.8,122.3z"/>
			</g>
		</g>
	</g>
	<g>
		<g>
			<path class="st0" d="M100,193.6c-51.6,0-93.6-42-93.6-93.6S48.4,6.4,100,6.4s93.6,42,93.6,93.6
				C193.7,151.5,151.6,193.6,100,193.6z M100,15.2c-46.7,0-84.7,38-84.7,84.7s38,84.7,84.7,84.7s84.7-38,84.7-84.7
				C184.7,53.2,146.7,15.2,100,15.2z"/>
		</g>
	</g>
</g>
</svg>
