<?xml version="1.0" encoding="utf-8"?>
<!-- Generator: Adobe Illustrator 22.1.0, SVG Export Plug-In . SVG Version: 6.00 Build 0)  -->
<svg version="1.1" id="Capa_1" xmlns="http://www.w3.org/2000/svg" xmlns:xlink="http://www.w3.org/1999/xlink" x="0px" y="0px"
	 viewBox="0 0 200 200" style="enable-background:new 0 0 200 200;" xml:space="preserve">
<style type="text/css">
	.st0{fill:#CEA927;}
</style>
<g>
	<g id="dVy3oS.tif_2_">
		<g>
			<g>
				<path class="st0" d="M62.9,81.4c1.6-2.9,3.4-5.7,4.7-8.7c1.8-4.1,5.1-5.7,9.3-6.1c10.2-1.1,20.4-1.9,30.7-1.3
					c6,0.4,11.9,1,17.9,1.7c2.8,0.3,5,1.8,6.4,4.5c1.5,3,3.1,5.8,4.7,8.7c0.2,0.4,0.4,0.7,0.6,1.1c3.2-2.2,8.1-2.1,11.2,0.3
					c1.1,0.8,1.2,1.8,1,3c-0.2,1.1-1.1,1.4-2,1.5c-1.3,0.1-2.6,0.2-3.9,0.3c-0.3,0-0.6-0.1-0.9,0c-0.5,0.2-0.9,0.4-1.4,0.6
					c0.2,0.4,0.4,0.9,0.7,1.2c3.7,4,7.1,8.2,8.5,13.6c0.4,1.3,0.5,2.7,0.6,4c0.1,2.6,0,5.2,0,7.9c0,2.2-0.6,4.3-1.5,6.3
					c-0.3,0.6-0.4,1.2-0.5,1.8c0,3.6,0,7.2,0,10.8c0,1.7-0.5,2.1-2.1,2.1c-3.7,0-7.4,0-11.1,0c-1.5,0-2-0.5-2-2c0-2,0-4,0-6
					c0-0.1-0.1-0.1-0.1-0.2c-22.5,0-45,0-67.7,0c0,2,0,3.9,0,5.8c0,2-0.4,2.4-2.4,2.4c-3.5,0-7.1,0-10.6,0c-1.7,0-2.2-0.4-2.2-2.1
					c0-3.5,0-7.1,0-10.6c0-0.5-0.2-1-0.4-1.5c-1.1-2-1.8-4.1-1.8-6.5c0-2.5,0-5,0-7.5c-0.1-4.7,1.7-8.8,4.6-12.4
					c1.7-2.1,3.4-4.1,5.2-6.2c0.6-0.7,0.4-1.2-0.5-1.3c-1.4-0.2-2.9-0.2-4.4-0.4c-0.4,0-0.7-0.1-1.1-0.1c-0.8-0.1-1.6-0.4-1.8-1.3
					c-0.2-1-0.2-2.1,0.7-2.9C54.2,79.3,59.9,79,62.9,81.4z M100.1,83.5c10.6,0,21.2,0,31.7,0c1.4,0,2-0.5,2.1-1.8
					c0.1-0.8-0.1-1.8-0.5-2.5c-1.4-2.5-2.8-5-4.3-7.4c-1.1-1.7-2.7-2.7-4.9-2.7c-16.1,0-32.2,0-48.3,0c-2.2,0-3.8,1-4.9,2.7
					c-1.6,2.5-3,5-4.4,7.6c-0.3,0.5-0.5,1.2-0.5,1.8c0,1.6,0.8,2.3,2.3,2.3C79,83.5,89.5,83.5,100.1,83.5z M81.3,115.6
					c0.5,1.2,0.8,2.2,1.3,3.1c0.9,1.4,2.1,2.7,4,2.7c9,0,17.9,0,26.9,0c0.3,0,0.7,0,1-0.2c2.4-1.1,3.5-3.1,4-5.7
					C106.2,115.6,93.9,115.6,81.3,115.6z M88.4,98.4L88.4,98.4c-2.4,0-4.8,0-7.2,0c-1.8,0-2.6,0.9-2.6,2.7c0,2.1,1.4,3.6,2.6,5.2
					c0.8,1,1.8,1.6,3.1,1.7c3.9,0.1,7.8,0.2,11.7,0.2c1.6,0,2.8-1.4,2.8-3.1c0-1,0-2,0-3c0-2.4-1.1-3.5-3.5-3.5
					C93,98.4,90.7,98.4,88.4,98.4z M111.7,98.4c-2.4,0-4.8,0-7.2,0c-2.2,0-3.3,1.2-3.3,3.3c0,1,0,1.9,0,2.9c0,2.1,1.3,3.4,3.4,3.4
					c2.9,0,5.9-0.1,8.8,0c3.2,0.1,5.5-1.1,7-4c0.2-0.5,0.6-0.9,0.8-1.4c1.1-2.4-0.2-4.3-2.7-4.3C116.2,98.4,114,98.4,111.7,98.4z
					 M143.2,99.5c0-2.7-0.9-3.7-3.3-3.7c-0.7,0-1.5,0.1-2.2,0.2c-2.4,0.4-4.7,0.9-7.1,1.1c-2.7,0.2-4.4,1.6-5.4,3.9
					c-0.3,0.5-0.4,1.5-0.1,1.8c0.4,0.5,1.3,0.6,1.9,0.8c0.2,0.1,0.6-0.1,0.8-0.1c3.1-0.6,6.1-1.3,9.1,0.6c0.4,0.3,1.3,0,1.9-0.3
					c0.9-0.4,1.7-1.2,2.7-1.6C142.8,101.5,143.2,100.5,143.2,99.5z M61.1,95.8c-3-0.1-3.7,0.3-4.1,2.1c-0.5,2,0.1,3.7,1.8,4.3
					c0.7,0.3,1.3,0.7,1.8,1.1c1.2,0.9,2.3,1.1,3.7,0.3c1.5-0.9,3.1-1.1,4.8-0.7c1.4,0.3,2.7,0.6,4.1,0.6c0.6,0,1.5-0.2,1.9-0.7
					c0.3-0.4,0.2-1.3-0.1-1.8c-1.1-2.3-2.7-3.8-5.5-4C66.4,96.8,63.4,96.1,61.1,95.8z"/>
			</g>
		</g>
	</g>
	<g>
		<g>
			<path class="st0" d="M100,193.6c-51.6,0-93.6-42-93.6-93.6S48.4,6.4,100,6.4s93.6,42,93.6,93.6
				C193.6,151.5,151.6,193.6,100,193.6z M100,15.2c-46.7,0-84.7,38-84.7,84.7s38,84.7,84.7,84.7s84.7-38,84.7-84.7
				C184.6,53.2,146.7,15.2,100,15.2z"/>
		</g>
	</g>
</g>
</svg>
