<?xml version="1.0" encoding="utf-8"?>
<!-- Generator: Adobe Illustrator 22.1.0, SVG Export Plug-In . SVG Version: 6.00 Build 0)  -->
<svg version="1.1" id="Capa_1" xmlns="http://www.w3.org/2000/svg" xmlns:xlink="http://www.w3.org/1999/xlink" x="0px" y="0px"
	 viewBox="0 0 200 200" style="enable-background:new 0 0 200 200;" xml:space="preserve">
<style type="text/css">
	.st0{fill:#949596;}
</style>
<g>
	<path class="st0" d="M233.9-1045.6L233.9-1045.6c-0.1-0.1-0.2-0.1-0.3-0.2L233.9-1045.6z"/>
</g>
<g>
	<path class="st0" d="M186.3-1045.8l-0.3,0.2C186.1-1045.7,186.2-1045.7,186.3-1045.8L186.3-1045.8z"/>
</g>
<g>
	<g>
		<path class="st0" d="M100,193.6c-51.6,0-93.6-42-93.6-93.6S48.4,6.4,100,6.4s93.6,42,93.6,93.6S151.6,193.6,100,193.6z M100,15.3
			c-46.7,0-84.7,38-84.7,84.7c0,46.7,38,84.7,84.7,84.7s84.7-38,84.7-84.7C184.7,53.2,146.7,15.3,100,15.3z"/>
	</g>
	<g>
		<g>
			<g>
				<g>
					<path class="st0" d="M145.2,155.6H54.8V44.3H116l29.3,29.3v82H145.2z M63.7,146.6h72.5V77.3l-24-24H63.7V146.6z"/>
				</g>
			</g>
			<g>
				<g>
					<path class="st0" d="M115.6,44.3h-6.2l-0.3,35.8l36,0.3v-6L115.6,44.3z M118.2,71.2l0.1-11.4l11.3,11.5L118.2,71.2z"/>
				</g>
			</g>
		</g>
		<g>
			<g>
				<path class="st0" d="M77.7,87c-0.6,0.6-0.9,1.5-0.9,2.7v41.9c0,1.2,0.3,2.1,0.9,2.7l23.9-23.6L77.7,87z"/>
			</g>
			<g>
				<polygon class="st0" points="110.6,102.5 110.6,102.5 110.7,102.6 				"/>
			</g>
			<g>
				<path class="st0" d="M121.2,107.7l-9.4-5.3l-8.1,8l8.1,8l9.4-5.3C123.8,111.7,123.8,109.3,121.2,107.7z"/>
			</g>
			<g>
				<path class="st0" d="M110.7,119.4l-7.9-7.9L79.1,135c0.9,0.8,2.3,0.9,3.8,0L110.7,119.4z"/>
			</g>
			<g>
				<path class="st0" d="M110.7,101.6L82.9,86c-1.5-0.9-2.9-0.8-3.8,0l23.7,23.5L110.7,101.6z"/>
			</g>
		</g>
	</g>
</g>
</svg>
