<?xml version="1.0" encoding="utf-8"?>
<!-- Generator: Adobe Illustrator 22.1.0, SVG Export Plug-In . SVG Version: 6.00 Build 0)  -->
<svg version="1.1" id="Capa_1" xmlns="http://www.w3.org/2000/svg" xmlns:xlink="http://www.w3.org/1999/xlink" x="0px" y="0px"
	 viewBox="0 0 200 200" style="enable-background:new 0 0 200 200;" xml:space="preserve">
<style type="text/css">
	.st0{fill:#949596;}
</style>
<g>
	<path class="st0" d="M-235.6-998.4L-235.6-998.4c-0.1-0.1-0.2-0.1-0.3-0.2L-235.6-998.4z"/>
</g>
<g>
	<path class="st0" d="M-235.6-1092.9l-0.3,0.2C-235.8-1092.8-235.7-1092.8-235.6-1092.9L-235.6-1092.9z"/>
</g>
<g>
	<g>
		<g>
			<path class="st0" d="M100,193.6c-51.6,0-93.6-42-93.6-93.6S48.4,6.4,100,6.4s93.6,42,93.6,93.6
				C193.7,151.6,151.6,193.6,100,193.6z M100,15.3c-46.7,0-84.7,38-84.7,84.7c0,46.7,38,84.7,84.7,84.7s84.7-38,84.7-84.7
				C184.7,53.2,146.7,15.3,100,15.3z"/>
		</g>
	</g>
	<g>
		<path class="st0" d="M150.1,74.8c-1.2-4.5-4.7-8-9.2-9.2c-8.2-2.2-40.9-2.2-40.9-2.2s-32.7,0-40.9,2.2c-4.5,1.2-8,4.7-9.2,9.2
			C47.7,83,47.7,100,47.7,100s0,17,2.2,25.2c1.2,4.5,4.7,8,9.2,9.2c8.2,2.2,40.9,2.2,40.9,2.2s32.7,0,40.9-2.2
			c4.5-1.2,8-4.7,9.2-9.2c2.2-8.2,2.2-25.2,2.2-25.2S152.3,82.9,150.1,74.8z M89.6,115.6V84.2l27.2,15.7L89.6,115.6z"/>
	</g>
</g>
</svg>
