<?xml version="1.0" encoding="utf-8"?>
<!-- Generator: Adobe Illustrator 22.1.0, SVG Export Plug-In . SVG Version: 6.00 Build 0)  -->
<svg version="1.1" id="Capa_1" xmlns="http://www.w3.org/2000/svg" xmlns:xlink="http://www.w3.org/1999/xlink" x="0px" y="0px"
	 viewBox="0 0 200 200" style="enable-background:new 0 0 200 200;" xml:space="preserve">
<style type="text/css">
	.st0{fill:#ffffff;}
</style>
<g>
	<path class="st0" d="M-235.6-998.4L-235.6-998.4c-0.1-0.1-0.2-0.1-0.3-0.2L-235.6-998.4z"/>
</g>
<g>
	<path class="st0" d="M-235.6-1092.9l-0.3,0.2C-235.8-1092.8-235.7-1092.8-235.6-1092.9L-235.6-1092.9z"/>
</g>
<g>
	<g>
		<path class="st0" d="M95.5,192c-50.8,0-92-41.3-92-92c0-50.8,41.3-92,92-92s92,41.3,92,92S146.2,192,95.5,192z M95.5,16.7
			c-45.9,0-83.2,37.3-83.2,83.2c0,45.9,37.3,83.2,83.2,83.2s83.2-37.3,83.2-83.2C178.7,54,141.4,16.7,95.5,16.7z"/>
	</g>
	<g>
		<g>
			<path class="st0" d="M62.5,53.9c-1.1,1.2-1.7,2.9-1.7,5.2v82c0,2.3,0.6,4.1,1.7,5.2l46.8-46.2L62.5,53.9z"/>
		</g>
		<g>
			<polygon class="st0" points="126.7,84.2 126.7,84.2 127,84.5 			"/>
		</g>
		<g>
			<path class="st0" d="M147.4,94.5l-18.3-10.3l-15.8,15.7l15.8,15.7l18.3-10.3C152.6,102.3,152.6,97.6,147.4,94.5z"/>
		</g>
		<g>
			<path class="st0" d="M127.1,117.3l-15.5-15.4l-46.4,45.9c1.7,1.5,4.4,1.7,7.5,0L127.1,117.3z"/>
		</g>
		<g>
			<path class="st0" d="M127,82.6L72.5,52.1c-3-1.7-5.7-1.5-7.5,0L111.4,98L127,82.6z"/>
		</g>
	</g>
</g>
</svg>
