<?xml version="1.0" encoding="utf-8"?>
<!-- Generator: Adobe Illustrator 22.1.0, SVG Export Plug-In . SVG Version: 6.00 Build 0)  -->
<svg version="1.1" id="Capa_1" xmlns="http://www.w3.org/2000/svg" xmlns:xlink="http://www.w3.org/1999/xlink" x="0px" y="0px"
	 viewBox="0 0 200 200" style="enable-background:new 0 0 200 200;" xml:space="preserve">
<style type="text/css">
	.st0{fill:#999999;}
</style>
<path class="st0" d="M173.1,80.2c-2-1.9-3.8-3.8-5.3-5.3c2.9-2.3,5.7-4.2,8-6.6c2.1-2.2,1.6-5.5-0.6-7.1c-3.7-2.7-8-3-12.4-2.7
	c-3.6,0.3-4.4,3.4-5.2,6.5c-4.8-4.5-6.8-8.8-11.1-13c-4.6-4.5-10-6.7-16.5-6.7c-18.5,0.1-41.6,0.1-60,0c-6.3,0-11.5,2.1-15.9,6.4
	c-3.9,3.7-5.5,7.5-9.4,11.4c-0.7,0.6-1.4,1.2-2.4,2c-0.5-3.9-2.1-6.6-5.8-6.5c-3.4,0.1-6.8,0.6-10,1.7c-3.8,1.4-4.8,5.5-1.9,8.4
	c2.2,2.3,5.1,4.1,7.9,6.3c-1.7,1.7-3.9,3.7-6,5.9c-6.3,6.4-9.8,13.9-9.9,23c-0.1,6.5-0.3,12.9,0.1,19.3c0.2,3.8,1.2,8,3,11.4
	c1,1.7,1.6,3.4,2,5.1v7.9c0,4.1,3.3,7.3,7.3,7.3h14.7c4.1,0,7.3-3.3,7.3-7.3V145h97.5v2.1c0,4.1,3.3,7.3,7.3,7.3h14.7
	c4.1,0,7.3-3.3,7.3-7.3v-8.4c1-2.3,2.3-4.5,3.7-6.3c1.3-1.7,1.7-4.4,1.9-6.6c0.2-6.8,0.1-13.8,0.2-20.7
	C183.7,95.4,180.1,87.2,173.1,80.2z M58.9,58.9c4.2-3.6,5.2-3.6,8.6-4.5c1-0.2,2.2-0.2,3.3-0.2c17.8,0,40.2,0,58,0
	c4.9,0,9.1,1.5,12.5,5.1c4.9,5,7.7,9.8,12.8,14.6c0.7,0.7,1.3,1.4,2.3,2.4H44.9C50.1,70.8,52.7,64.2,58.9,58.9z M23.2,97.3
	c1.3-5.3,6.6-8.4,11.8-6.5c6.2,2.2,12,5.5,16.5,10.2c3.7,3.9,3,6.4-2.3,7.4c-3.5,0.7-7.1,0.7-10.2,1c-3-0.2-5.7-0.1-8.4-0.6
	C25.3,108.1,22,102.7,23.2,97.3z M38.3,134.5c-4.6-0.2-9.3-3.9-10-7.5c-0.8-4.1,0.9-6,4.9-6c4.1,0,8.2,0,12.3,0
	c0.9,0,2.2,0.2,2.7,0.8c3.6,3.9,7.2,8.1,11.3,12.9C51.8,134.6,45.1,134.8,38.3,134.5z M127.4,134.3c-0.8,0.1-1.5,0.3-2.3,0.3
	c-16.7,0-33.5,0.1-50.3,0c-6.2,0-9.5-3.5-10-9.5h70.1C134.7,129.9,131.9,133.4,127.4,134.3z M133.5,115.4c-1.6,1.5-4.3,2.8-6.4,2.8
	c-18.2,0.2-36.4,0.1-54.6,0.1c-3.5,0-6.2-1.6-7.7-4.4c-1.7-3.4-2.7-7.1-4.2-11.3H138C138.2,107.5,137.1,112,133.5,115.4z M172.2,127
	c-0.7,3.6-5.3,7.4-10,7.5c-6.7,0.2-13.5,0.1-21.2,0.1c4.2-4.8,7.7-8.9,11.3-12.9c0.6-0.6,1.7-0.8,2.7-0.8c4.1-0.1,8.2,0,12.3,0
	S173,123,172.2,127z M169.6,108.8c-2.9,0.6-5.9,0.5-9.6,0.8c-3.3-0.5-7.1-0.6-10.8-1.5c-3.7-0.8-4.4-3.1-1.9-6
	c5.1-5.8,11.6-9.6,18.9-11.7c4.5-1.3,9.3,2.4,10.3,7.2C177.5,102.7,174.5,108,169.6,108.8z"/>
</svg>
