<?xml version="1.0" encoding="utf-8"?>
<!-- Generator: Adobe Illustrator 22.1.0, SVG Export Plug-In . SVG Version: 6.00 Build 0)  -->
<svg version="1.1" id="Capa_1" xmlns="http://www.w3.org/2000/svg" xmlns:xlink="http://www.w3.org/1999/xlink" x="0px" y="0px"
	 viewBox="0 0 200 200" style="enable-background:new 0 0 200 200;" xml:space="preserve">
<style type="text/css">
	.st0{fill:#999999;}
</style>
<g>
	<g>
		<g>
			<path class="st0" d="M64,123.2c-4.7,0-7.3-2.7-7.7-7.3h31.3c-0.6-1.7-1.1-3.4-1.5-5.2c-7.9,0-15.9,0-23.8,0
				c-2.7,0-4.8-1.2-5.9-3.4c-1.3-2.6-2-5.4-3.2-8.6h31.3c0-0.6,0-1.3,0-1.9c0-6.3,1-12.4,2.8-18.2H41.1c3.9-4.3,7.7-9.4,12.5-13.4
				c3.2-2.7,4-2.7,6.6-3.5c0.8-0.2,1.7-0.1,2.5-0.1c11,0,22.1,0,33.1,0c1.7-2.4,3.6-4.6,5.7-6.7c-13.2,0-26.4,0-39.6,0
				c-4.8,0-8.8,1.6-12.2,4.9c-3,2.9-6,5.8-9,8.7c-0.5,0.5-1.1,0.9-1.8,1.5c-0.3-3.1-1.6-5.1-4.5-5c-2.6,0.1-5.3,0.5-7.7,1.4
				c-2.9,1.1-3.6,4.1-1.5,6.4c1.7,1.8,3.9,3.1,6.1,4.8c-1.4,1.3-3.1,2.9-4.7,4.5c-4.8,4.9-7.5,10.7-7.5,17.6
				c-0.1,4.9-0.3,9.9,0.1,14.8c0.2,3,0.9,6.2,2.3,8.7c0.8,1.3,1.3,2.6,1.5,3.9v6.1c0,3.1,2.5,5.6,5.6,5.6h11.3
				c3.1,0,5.6-2.5,5.6-5.6v-1.8h50c-1.8-2.5-3.4-5.2-4.8-8C81.8,123.3,72.9,123.3,64,123.2z M24.6,94.6c1-4.1,5-6.4,9.1-5
				c4.7,1.7,9.1,4.1,12.7,7.8c2.8,3,2.3,4.9-1.8,5.7c-2.6,0.5-5.4,0.6-7.8,0.8c-2.3-0.1-4.4-0.1-6.4-0.4
				C26.1,102.9,23.6,98.8,24.6,94.6z M36.1,123.2c-3.6-0.1-7.1-3.1-7.6-5.8c-0.6-3.1,0.7-4.7,3.7-4.7c3.1,0,6.3,0,9.4,0
				c0.7,0,1.6,0.1,2.1,0.6c2.8,3.1,5.5,6.2,8.7,9.9C46.5,123.3,41.3,123.4,36.1,123.2z"/>
		</g>
	</g>
	<g>
		<path class="st0" d="M137.4,96.8c0.8-0.8,1.3-2.1,1.3-3.2c0.1-14.9,0.1-29.7,0.1-44.6c-25,1.7-44.7,22.5-44.7,47.9
			c0,12.1,4.4,23.1,11.8,31.5c0.1-0.1,0.1-0.1,0.2-0.2C116.5,117.8,127,107.3,137.4,96.8z"/>
		<path class="st0" d="M145.4,49c0,14.8,0,29.6,0,44.6c15.1,0,29.9,0,44.6,0C188.4,69.7,169.3,50.6,145.4,49z"/>
		<path class="st0" d="M110.9,133.5c8.4,7.2,19.3,11.5,31.2,11.5c11.4,0,21.9-4,30.1-10.6c-10.5-10.5-20.9-20.9-31.1-31.1
			C131.2,113.2,121.1,123.3,110.9,133.5z"/>
		<path class="st0" d="M177.9,129c6.9-7.7,11.4-17.7,12.2-28.8c-13.7,0-27.4,0-40.9,0C158.7,109.8,168.3,119.4,177.9,129z"/>
	</g>
</g>
</svg>
