<?xml version="1.0" encoding="utf-8"?>
<!-- Generator: Adobe Illustrator 22.1.0, SVG Export Plug-In . SVG Version: 6.00 Build 0)  -->
<svg version="1.1" id="Capa_1" xmlns="http://www.w3.org/2000/svg" xmlns:xlink="http://www.w3.org/1999/xlink" x="0px" y="0px"
	 viewBox="0 0 200 200" style="enable-background:new 0 0 200 200;" xml:space="preserve">
<style type="text/css">
	.st0{fill:#999999;}
</style>
<g>
	<g>
		<path class="st0" d="M181.4,71.2c-1.6-1.5-3.1-3.1-4.3-4.3c2.3-1.9,4.6-3.4,6.5-5.4c1.7-1.8,1.4-4.4-0.5-5.7
			c-3-2.2-6.5-2.5-10.1-2.1c-3,0.3-3.6,2.7-4.3,5.3c-3.9-3.7-7.4-7.1-11-10.6c-3.7-3.6-8.1-5.5-13.4-5.4c-15,0.1-30,0.1-44.9,0
			c-5.1,0-9.3,1.7-13,5.2c-3.2,3.1-6.4,6.1-9.5,9.2c-0.5,0.5-1.2,1-1.9,1.6c-0.3-3.2-1.7-5.4-4.7-5.3c-2.7,0.1-5.6,0.5-8.1,1.4
			c-3.1,1.1-3.8,4.4-1.6,6.8c1.8,1.9,4.1,3.3,6.4,5.1c-1.5,1.4-3.2,3-4.9,4.8c-5.1,5.2-7.9,11.3-8,18.6c0,2.3-0.1,4.7-0.1,7
			c0.3,0,0.5,0,0.8,0h0c4.3,0,8.8,0.8,13.5,2.3c0.3,0.1,0.7,0.2,1.1,0.3c1.3,0.4,2.8,0.9,4.4,1.7c6.1,3.1,12.7,5.6,20,7.5
			c-0.1-0.5-0.2-1.1-0.2-1.6h56.9c-0.1,4-2.4,6.8-6.1,7.5c-0.6,0.1-1.2,0.2-1.9,0.2c-8.1,0-16.1,0-24.2,0c0.7,0.5,1.3,1,1.9,1.5
			c2.1,2,3.5,4.4,4,7h11.4c2.1-1.1,4.4-2.1,6.7-3c1.3-0.5,2.8-0.8,4.3-0.8c1.5,0,5.2,0.3,8,2.7c0.4,0.3,0.7,0.7,1.1,1.1h5.7v1.7
			c0,3.3,2.6,5.9,5.9,5.9h11.9c3.3,0,5.9-2.6,5.9-5.9v-6.8c0.8-1.8,1.9-3.6,3-5.1c1-1.4,1.4-3.5,1.5-5.4c0.2-5.6,0.1-11.2,0.2-16.8
			C190,83.6,187.1,76.8,181.4,71.2z M80.9,94.1c-2.8,0.6-5.7,0.6-8.3,0.8c-2.5-0.2-4.6-0.1-6.8-0.5c-4.4-0.7-7.2-5-6.1-9.5
			c1.1-4.3,5.3-6.8,9.6-5.3c5,1.8,9.7,4.4,13.4,8.3C85.8,91.2,85.2,93.3,80.9,94.1z M149.3,99.7c-1.3,1.2-3.4,2.2-5.2,2.2
			c-14.8,0.2-29.6,0.1-44.3,0.1c-2.8,0-5-1.3-6.2-3.6c-1.4-2.7-2.2-5.7-3.4-9.1H153C153.1,93.4,152.2,97,149.3,99.7z M77.4,68.1
			c4.2-4.5,8.2-9.9,13.3-14.2c3.4-2.9,4.3-2.9,7-3.7c0.8-0.2,1.8-0.1,2.7-0.1c14.4,0,28.9,0,43.3,0c4,0,7.3,1.2,10.2,4.1
			c4,4,8.1,7.9,12.2,11.9c0.6,0.5,1.1,1.1,1.8,2H77.4z M180.7,109.2c-0.6,2.9-4.3,6-8.1,6.1c-5.5,0.2-10.9,0.1-17.2,0.1
			c3.4-3.9,6.2-7.2,9.2-10.5c0.4-0.5,1.4-0.6,2.2-0.6c3.3-0.1,6.7,0,10,0C180,104.2,181.3,105.9,180.7,109.2z M178.6,94.4
			c-2.4,0.4-4.8,0.4-7.8,0.6c-2.6-0.3-5.8-0.5-8.8-1.2c-3-0.7-3.6-2.5-1.5-4.9c4.1-4.8,9.4-7.8,15.4-9.5c3.7-1,7.5,2,8.3,5.9
			C185.1,89.5,182.6,93.7,178.6,94.4z"/>
	</g>
	<g id="_x34_umTwP_1_">
		<g>
			<path class="st0" d="M10.1,131.2c5.1-4.6,9.9-9.6,15.4-13.6c5.1-3.8,10.8-6.8,16.4-9.8c7.7-4.1,15.8-4,24-1.2
				c1.5,0.5,3.1,0.9,4.5,1.6c12.1,6.2,25,9.5,38.4,11.4c5.8,0.8,8.8,3.9,8.5,7.5c-0.3,3.4-4.4,6.6-9.4,7c-1.9,0.1-3.9-0.2-5.8-0.7
				c-5.6-1.6-11.3-1.8-17.7-0.9c4,5,8.8,7.7,14.3,7.8c7.5,0.1,15.1-0.1,22.5-1.2c3.7-0.5,7.1-3.2,10.6-4.9c4.4-2.2,8.6-4.7,13.1-6.4
				c1.5-0.6,4-0.3,5.1,0.7c2.6,2.3,1.5,5.2,0.5,6.8c-0.4,0.6-0.8,1.5-1.5,2.1c-9.2,8.2-19.2,15.5-31.4,17.8
				c-9.7,1.8-19.9,1.8-29.8,2.2c-2.6,0.1-5.4-0.9-7.8-1.9c-6.6-2.7-13.2-5.3-19.6-8.5c-9.7-4.7-18.7-4.3-27.4,2.3
				c-6.7,5.1-6.7,5.1-11.7-1.6c-3.7-4.9-7.4-9.8-11.1-14.7C10.1,132.2,10.1,131.7,10.1,131.2z"/>
		</g>
	</g>
</g>
</svg>
