<?xml version="1.0" encoding="utf-8"?>
<!-- Generator: Adobe Illustrator 22.1.0, SVG Export Plug-In . SVG Version: 6.00 Build 0)  -->
<svg version="1.1" id="Capa_1" xmlns="http://www.w3.org/2000/svg" xmlns:xlink="http://www.w3.org/1999/xlink" x="0px" y="0px"
	 viewBox="0 0 200 200" style="enable-background:new 0 0 200 200;" xml:space="preserve">
<style type="text/css">
	.st0{fill:#CEA927;}
</style>
<g>
	<g id="OJZjOA.tif_2_">
		<g>
			<g>
				<path class="st0" d="M42.7,119.9c0-2.3,0-4.7,0-7c0.3-0.9,0.5-1.7,0.8-2.6c2.3-8.4,10.2-15.1,18.5-15.7
					c10.1-0.7,18.6,4.3,22.2,12.9c1.5,3.5,1.5,3.5,5.2,3.4c0.3,0,0.6-0.1,1-0.1c-1.2-4.1-2.3-8-3.5-12c-0.1-0.4-0.3-0.7-0.6-1
					c-4.1-4.1-8.7-7.4-14.3-9c-6.2-1.7-12.5-1.5-18.7,1c-0.5-1.1-1-2.1-1.7-3.3c2.2-0.7,4.3-1.4,6.6-2.1c-2-1.1-3.7-2-5.5-3
					c-0.4-0.3-1-0.8-1.1-1.2c-0.1-1.5-0.1-3-0.1-4.7c1.1,0.1,1.9,0.2,2.8,0.3c12.4,1.7,24.8,3.5,37.2,5.2c1.2,0.2,2-0.2,2.9-0.9
					c2.6-1.8,5.4-3.2,8.1-4.8c0.5-0.3,1.2-0.5,1.6-0.9c1.2-1,4.4-1.5,5.8-0.8c2.1,1.1,4.3,2.1,7,3.4c-0.6-1.9-1.2-3.3-1.4-4.6
					c-0.2-0.9-0.3-2.1,0.2-2.7c1-1.5,0.9-2.7-0.2-3.8c-1-1-2.1-2.5-3.8-1c-0.2,0.2-0.6,0.2-0.9,0.2c-2.8,0-5.6,0.2-8.3-0.1
					c-1.1-0.1-2.5-1.2-3-2.2c-0.4-0.7,0.3-2.1,0.7-3.1c0.1-0.4,0.7-0.7,1.1-1.1c3.6,0,7.2,0,10.9,0c2.8,2.8,6.7,4.4,8.2,8.4
					c0.1,0.2,0.3,0.4,0.5,0.5c1.8,0.6,2.3,2.1,2.9,3.6c1.6,4.6,3.2,9.1,4.8,13.7c6.6-1.9,12.8-1.1,19.1,1.6
					c-0.6,1.2-1.1,2.2-1.6,3.2c-8.3-2.2-13.2-2.6-16.8-1.3c0.8,2.2,1.6,4.3,2.4,6.4c12.8-1.3,21.6,5,25,17.2
					c2.6,9.2-2.3,20.3-12.4,24.5c-9.8,4.1-20.9,0.7-26.7-8.1c-5.5-8.5-5.2-22.9,7.5-30.9c-0.4-1.1-0.8-2.1-1.2-3.2
					c-0.4-1.1-0.9-2.2-1.3-3.3c-5.4,2.9-7.7,4.9-10.9,10.2c-2,3.3-3.7,6.8-5.6,10.2c-2.6,4.5-6.7,6.5-11.9,6.6
					c-2.7,0-5.4,0.2-8.1,0.3c-0.2,0.8-0.3,1.3-0.4,1.8c-1.8,10.2-10.1,17.3-20.7,17.8c-10.2,0.5-19.1-6-21.7-16
					C43.2,121.1,42.9,120.5,42.7,119.9z M75.2,111.6c-1.9-5.4-8-8.4-13.7-7c-6.1,1.5-10,7.3-9.2,13.4c0.8,5.9,6.5,10.6,12.6,10.3
					c5.2-0.3,10.7-4.8,11-9.2c-0.4,0-0.8,0.1-1.1,0.1c-3.5,0.3-7.1,0.7-10.6,0.9c-2.1,0.1-3.6-1.4-3.7-3.2c-0.1-2.1,1.1-3.5,3.2-3.8
					C67.6,112.7,71.3,112.2,75.2,111.6z M134.8,104.9c1.2,3.5,2.4,6.7,3.5,10c0.9,2.9-0.7,4.9-3.7,4.6c-1.5-0.1-2.4-1-2.9-2.4
					c-1.1-3.3-2.3-6.6-3.5-10c-4.6,3.2-6,9.5-3.5,14.5c2.7,5.4,8.9,8,14.3,6.2c5.5-1.9,8.7-7.2,7.6-13.1
					C145.7,109.2,140.4,104.8,134.8,104.9z"/>
			</g>
		</g>
	</g>
	<g>
		<g>
			<path class="st0" d="M100,192.1c-51.6,0-93.6-42-93.6-93.6S48.4,4.9,100,4.9s93.6,42,93.6,93.6C193.6,150,151.6,192.1,100,192.1z
				 M100,13.7c-46.7,0-84.7,38-84.7,84.7s38,84.7,84.7,84.7s84.7-38,84.7-84.7S146.7,13.7,100,13.7z"/>
		</g>
	</g>
</g>
</svg>
