<?xml version="1.0" encoding="utf-8"?>
<!-- Generator: Adobe Illustrator 22.1.0, SVG Export Plug-In . SVG Version: 6.00 Build 0)  -->
<svg version="1.1" id="Capa_1" xmlns="http://www.w3.org/2000/svg" xmlns:xlink="http://www.w3.org/1999/xlink" x="0px" y="0px"
	 viewBox="0 0 200 200" style="enable-background:new 0 0 200 200;" xml:space="preserve">
<style type="text/css">
	.st0{fill:#999999;}
</style>
<g>
	<g>
		<path class="st0" d="M177.1,102.1c-1.9-1.9-3.8-3.8-5.3-5.3c2.8-2.3,5.7-4.2,8-6.6c2.1-2.2,1.7-5.4-0.6-7c-3.7-2.7-8-3-12.3-2.6
			c-3.6,0.3-4.4,3.3-5.2,6.5c-2.3-2.2-4.5-4.3-6.6-6.4c-1.1,2.8-2.4,5.5-4,8c2.4,2.3,4.9,4.7,7.3,7c0.7,0.7,1.3,1.4,2.3,2.5h-16.8
			c-10,10.6-24.2,17.2-39.8,17.2c-15.7,0-29.8-6.6-39.8-17.2H49.9c2.5-2.8,5-5.8,7.7-8.7c-1.6-2.6-3-5.4-4.2-8.3
			c-1.3,1.3-2.6,2.5-3.9,3.8c-0.7,0.6-1.4,1.2-2.4,2c-0.4-4-2-6.6-5.8-6.5c-3.4,0.1-6.8,0.6-10,1.8c-3.8,1.4-4.7,5.4-1.9,8.3
			c2.2,2.3,5.1,4.1,7.9,6.2c-1.8,1.7-4,3.7-6,5.8c-6.2,6.3-9.7,13.9-9.8,22.8c-0.1,6.4-0.4,12.8,0.1,19.2c0.3,3.8,1.1,8,3,11.3
			c1,1.7,1.6,3.4,2,5.1v7.9c0,4,3.2,7.2,7.2,7.2h14.6c4,0,7.2-3.2,7.2-7.2v-2.4h97.3v2.1c0,4,3.2,7.2,7.2,7.2h14.6
			c4,0,7.2-3.2,7.2-7.2v-8.3c1-2.3,2.3-4.5,3.7-6.3c1.3-1.7,1.7-4.3,1.8-6.6c0.3-6.8,0.2-13.7,0.3-20.5
			C187.6,117.2,184,109,177.1,102.1z M28.1,119c1.3-5.3,6.5-8.4,11.7-6.5c6.1,2.2,11.8,5.4,16.4,10.2c3.7,3.9,2.9,6.4-2.3,7.4
			c-3.4,0.7-7,0.7-10.1,1c-3-0.2-5.7-0.2-8.3-0.6C30.1,129.8,26.8,124.5,28.1,119z M43.1,156.1c-4.6-0.2-9.2-4-9.9-7.5
			c-0.8-4,0.9-6.1,4.9-6.1c4.1,0,8.2,0,12.2,0c0.9,0,2.1,0.2,2.7,0.8c3.6,4,7.1,8.1,11.2,12.8C56.5,156.2,49.8,156.4,43.1,156.1z
			 M131.6,155.8c-0.8,0.2-1.5,0.3-2.3,0.3c-16.7,0-33.3,0.1-50,0c-6.1,0-9.5-3.5-10-9.5H139C138.9,151.5,136.2,154.9,131.6,155.8z
			 M137.8,137c-1.6,1.5-4.2,2.7-6.4,2.8c-18.1,0.2-36.2,0.1-54.3,0.1c-3.4,0-6.2-1.6-7.6-4.4c-1.7-3.3-2.6-7-4.1-11.2h76.9
			C142.4,129.2,141.3,133.7,137.8,137z M176.2,148.6c-0.7,3.5-5.3,7.3-9.9,7.5c-6.7,0.3-13.4,0.1-21.1,0.1
			c4.1-4.8,7.6-8.9,11.2-12.8c0.5-0.6,1.8-0.8,2.7-0.8c4.1-0.1,8.2,0,12.2,0C175.3,142.5,177,144.6,176.2,148.6z M173.6,130.5
			c-2.9,0.5-5.9,0.5-9.5,0.8c-3.2-0.4-7-0.6-10.8-1.5c-3.7-0.8-4.4-3.1-1.9-6c5-5.8,11.5-9.5,18.8-11.6c4.5-1.3,9.2,2.4,10.2,7.2
			C181.5,124.4,178.5,129.6,173.6,130.5z"/>
	</g>
	<g>
		<path class="st0" d="M95.8,48.8c0,1,0.4,2,1.4,2.9c0.6,0.6,1.7,1.4,4.1,2.2V43.7c-1.6,0.4-2.9,1-3.8,1.8
			C96.3,46.6,95.8,47.7,95.8,48.8z"/>
		<path class="st0" d="M108.2,64.5v12.4c0.9-0.2,1.8-0.5,2.5-0.9c1-0.6,1.8-1.4,2.5-2.4c0.6-1,0.9-2,0.9-3c0-1.3-0.5-2.5-1.6-3.7
			C111.5,66,110.1,65.2,108.2,64.5z"/>
		<path class="st0" d="M103.9,14.9c-25.2,0-45.6,20.4-45.6,45.6s20.4,45.6,45.6,45.6s45.6-20.4,45.6-45.6S129.1,14.9,103.9,14.9z
			 M119.7,77.4c-1.3,2.2-3.3,4.1-5.9,5.5c-1.6,0.9-3.5,1.5-5.5,1.7v5v1.5h-1.5h-3.9h-1.5v-1.5v-4.9c-1.1-0.1-2.1-0.3-3-0.6
			c-1.3-0.4-2.6-1-3.9-1.8s-2.5-1.8-3.8-3.1c-0.9-0.9-2-2.2-3.3-4l-1-1.4l1.5-0.9l3.8-2.3l1.2-0.7l0.8,1.2c1.5,2.2,2.9,3.7,4.3,4.6
			c1,0.6,2.1,1.1,3.4,1.3V62.1c-2.5-0.9-4.5-1.8-5.9-2.7c-2.4-1.5-4.2-3.1-5.3-4.9c-1.1-1.8-1.7-3.7-1.7-5.7c0-2.1,0.6-4.1,1.9-6.1
			c1.2-2,3.2-3.6,5.8-4.9c1.4-0.7,3.2-1.3,5.3-1.7v-4.8v-1.5h1.5h3.9h1.5v1.5v4.9c2.5,0.6,4.6,1.4,6.2,2.4c1.9,1.2,3.8,2.9,5.6,5
			l1,1.3l-1.3,1l-3.4,2.5l-1.1,0.8l-0.9-1c-1.5-1.7-2.9-2.9-4.1-3.6c-0.6-0.4-1.3-0.6-1.9-0.8v12.4c2.3,0.7,4.1,1.4,5.4,2.1
			c2.5,1.4,4.5,3.1,5.8,5.1c1.4,2,2.1,4.4,2.1,6.9C121.6,72.8,121,75.1,119.7,77.4z"/>
	</g>
</g>
</svg>
