<?xml version="1.0" encoding="utf-8"?>
<!-- Generator: Adobe Illustrator 22.1.0, SVG Export Plug-In . SVG Version: 6.00 Build 0)  -->
<svg version="1.1" id="Capa_1" xmlns="http://www.w3.org/2000/svg" xmlns:xlink="http://www.w3.org/1999/xlink" x="0px" y="0px"
	 viewBox="0 0 200 200" style="enable-background:new 0 0 200 200;" xml:space="preserve">
<style type="text/css">
	.st0{fill:#949596;}
</style>
<g>
	<g>
		<path class="st0" d="M100,193.6c-51.6,0-93.6-42-93.6-93.6S48.4,6.4,100,6.4s93.6,42,93.6,93.6S151.6,193.6,100,193.6z M100,15.3
			c-46.7,0-84.7,38-84.7,84.7s38,84.7,84.7,84.7s84.7-38,84.7-84.7C184.7,53.3,146.7,15.3,100,15.3z"/>
	</g>
	<g>
		<g>
			<path class="st0" d="M115.5,88.5h-31C78.7,88.5,74,93.2,74,99v30.9c0,5.8,4.7,10.5,10.5,10.5h31c5.8,0,10.5-4.7,10.5-10.4V99
				C126,93.2,121.3,88.5,115.5,88.5z M88.6,129.5c-0.7,1.1-2.1,1.5-3.3,0.9c-1.1-0.6-1.5-2.1-0.9-3.2l1.5-2.6c0,0,0.3-0.7,1.8-0.7
				s2.9,1.3,3.1,1.7L88.6,129.5z M104.7,123.2H83.2c-1.3,0-2.4-1.1-2.4-2.4c0-1.3,1.1-2.4,2.4-2.4h6.3l7.6-13.1c0,0,0-0.1-0.1-0.1
				l-2.5-4.4c-0.7-1.1-0.3-2.6,0.9-3.3c1.1-0.7,2.6-0.3,3.3,0.9l1.2,2.1l1.2-2c0.6-1.2,2.1-1.5,3.3-0.9c1.1,0.7,1.5,2.1,0.9,3.3
				l-10.1,17.5h6.9c0,0,1.5,0,2.7,1.9C105.9,122.1,104.7,123.2,104.7,123.2z M116.4,123.2h-3.5l2.3,3.9c0.6,1.2,0.2,2.6-0.9,3.3
				c-1.2,0.7-2.6,0.3-3.3-0.9l-8.4-14.6c0,0-1.1-1.8-1.1-4.5s1.7-4,1.7-4l6.9,11.9h6.2c1.3,0,2.3,1.1,2.4,2.4
				C118.8,122.1,117.7,123.2,116.4,123.2z"/>
		</g>
		<g>
			<g>
				<g>
					<path class="st0" d="M145.2,155.6H54.8V44.3H116l29.3,29.3v82H145.2z M63.8,146.7h72.5V77.4l-24-24H63.8V146.7z"/>
				</g>
			</g>
			<g>
				<g>
					<path class="st0" d="M115.6,44.4h-6.2l-0.3,35.8l36,0.3v-6L115.6,44.4z M118.2,71.2l0.1-11.4l11.3,11.5L118.2,71.2z"/>
				</g>
			</g>
		</g>
	</g>
</g>
</svg>
