<?xml version="1.0" encoding="utf-8"?>
<!-- Generator: Adobe Illustrator 22.1.0, SVG Export Plug-In . SVG Version: 6.00 Build 0)  -->
<svg version="1.1" id="Capa_1" xmlns="http://www.w3.org/2000/svg" xmlns:xlink="http://www.w3.org/1999/xlink" x="0px" y="0px"
	 viewBox="0 0 200 200" style="enable-background:new 0 0 200 200;" xml:space="preserve">
<style type="text/css">
	.st0{fill:#999999;}
</style>
<g>
	<g>
		<path class="st0" d="M177.3,70.1c-1.9-1.8-3.7-3.7-5.1-5.1c2.7-2.2,5.5-4,7.7-6.4c2-2.1,1.6-5.2-0.6-6.8
			c-3.5-2.6-7.7-2.9-11.9-2.5c-3.5,0.3-4.2,3.2-5.1,6.3c-4.6-4.4-8.8-8.4-13-12.5c-4.4-4.3-9.6-6.5-15.8-6.4
			c-17.7,0.1-35.4,0.1-53.1,0c-6,0-11,2-15.3,6.1c-3.8,3.6-7.5,7.3-11.3,10.9c-0.6,0.6-1.4,1.1-2.3,1.9c-0.4-3.8-2-6.4-5.6-6.3
			c-3.2,0.1-6.6,0.6-9.6,1.7c-3.7,1.3-4.5,5.2-1.8,8.1c2.1,2.3,4.9,3.9,7.6,6c-1.7,1.7-3.8,3.6-5.8,5.6c-6,6.1-9.3,13.4-9.5,22
			c-0.1,6.2-0.3,12.4,0.1,18.5c0.3,3.7,1.1,7.7,2.9,10.9c0.9,1.7,1.6,3.3,1.9,4.9v7.6c0,3.8,3.1,7,7,7h14.1c3.8,0,7-3.1,7-7v-2.3
			h35.8c0.1-0.1,0.1-0.3,0.2-0.4l5-8.8c0.2-0.3,0.4-0.6,0.5-0.9c-6.1,0-12.2,0-18.4-0.1c-5.8,0-9.1-3.4-9.6-9.2h33.3
			c1.2-2.2,2.5-4.3,3.7-6.5c-9.8,0-19.7,0-29.5,0c-3.3,0-6-1.5-7.3-4.3c-1.6-3.2-2.6-6.8-4-10.8H119c2.9-5,5.8-10.1,8.7-15.2
			c0.3-0.6,0.7-1.2,1.2-1.7c-0.4-0.1-0.7-0.3-1.1-0.4c-4.6-1.5-6.1-4.6-6.5-6.4c-0.1-0.4-0.2-1-0.3-1.5H54.3
			C59.2,60.8,64,54.4,70,49.3c4.1-3.4,5.1-3.4,8.3-4.4c0.9-0.3,2.1-0.2,3.2-0.2c17.1,0,34.1,0,51.2,0c4.7,0,8.7,1.5,12,4.9
			c4.7,4.8,9.6,9.4,14.4,14.1c0.7,0.6,1.2,1.3,2.2,2.4h-11.7c0.8,0.7,1.6,1.4,2.4,2.2c4.3-0.6,7.7-1.1,11-1.6
			c0.7-0.1,1.4-0.2,2.1-0.2c2,0,6.8,0.6,9.1,6.6c1,2.6,2.1,5.3,3.1,7.9c1.7,1.3,2.9,3.3,3.4,5.4c0.2,1.1,0.2,2.3,0.1,3.4
			c1.2,3,2.4,6.1,3.5,9.1c1.1,2.9,0.8,6.7-0.8,9.5c-6.2,10.9-12.4,21.7-18.7,32.6h10c3.8,0,7-3.1,7-7v-8c1-2.2,2.3-4.3,3.6-6
			c1.2-1.6,1.7-4.2,1.7-6.4c0.3-6.6,0.2-13.2,0.3-19.8C187.4,84.7,184,76.7,177.3,70.1z M48,122.2c-4.4-0.2-8.9-3.8-9.6-7.3
			c-0.8-3.8,0.8-5.8,4.7-5.8s7.9,0,11.8,0c0.9,0,2.1,0.2,2.6,0.7c3.5,3.8,6.9,7.8,10.9,12.4C60.9,122.2,54.5,122.4,48,122.2z
			 M60.7,90c3.6,3.7,2.8,6.2-2.2,7.2c-3.3,0.7-6.7,0.7-9.8,1c-2.9-0.2-5.5-0.2-8-0.5c-5.2-0.8-8.5-6-7.2-11.2
			c1.3-5.1,6.3-8.1,11.3-6.2C50.8,82.3,56.3,85.3,60.7,90z"/>
		<path class="st0" d="M157.5,140.5c5.9-10.2,11.7-20.4,17.5-30.6l0,0c0.8-1.5,1.7-3,2.5-4.5c0.2-0.3,0.3-0.6,0.4-1
			c0.1-0.3,0.1-0.6,0.2-0.9c0-0.2,0-0.4,0-0.6c0-0.3,0-0.7-0.1-1c0-0.2-0.1-0.3-0.1-0.4c-0.6-1.6-1.2-3.2-1.8-4.8l0,0
			c-1.1-3-2.3-5.9-3.5-8.8c-1-2.6-2-5.2-3.1-7.8c-0.6-1.5-1.1-2.9-1.7-4.4c-0.7-1.9-1.8-2.6-3.9-2.3c-4.4,0.7-8.8,1.3-13.2,1.9
			c-0.7,0.1-1.7-0.1-2.1-0.6c-4.2-4.5-9-8.3-14.7-10.3c-0.9-0.3-2.2-1-3.2-1.2c-1.8-0.4-2.9,0.6-3.1,1.3c-0.4,1.8,0.4,2.7,2.1,3.3
			c11.3,4.2,18.8,11.6,23.2,22.6c0.2,0.5,0.4,1,0.6,1.5c0,0.1,0.1,0.2,0.2,0.3v0.1c0.1,0.1,0.1,0.2,0.2,0.3l0,0
			c0.1,0.1,0.1,0.2,0.2,0.2c0,0,0,0,0.1,0.1s0.1,0.1,0.2,0.2l0,0c0.1,0.1,0.1,0.1,0.2,0.2c0,0,0,0,0.1,0s0.2,0.1,0.3,0.1l0,0
			c0.1,0,0.2,0.1,0.2,0.1s0,0,0.1,0s0.2,0,0.3,0l0,0h0.1h0.1h0.1h0.1c0.1,0,0.1,0,0.2,0h0.1c0.1,0,0.2-0.1,0.3-0.1
			c0.7-0.3,1.1-0.7,1.3-1.3c0-0.1,0.1-0.3,0.1-0.4s0-0.1,0-0.2c0-0.2,0-0.3,0-0.5c0-0.1,0-0.2-0.1-0.3c0-0.1-0.1-0.2-0.1-0.3v-0.1
			c-0.2-0.5-0.4-1-0.6-1.5c-0.2-0.5-0.4-1-0.6-1.5c0,0,0,0,0-0.1c-0.4-1-0.8-1.9-1.3-2.9c1.5-0.3,3,0,4.4,0.7
			c0.2,0.1,0.4,0.2,0.6,0.4l0,0c0.7,0.4,1.3,1,1.8,1.7l0.1,0.1c0.1,0.2,0.2,0.3,0.4,0.5c0,0.1,0.1,0.1,0.1,0.2
			c0.1,0.2,0.2,0.3,0.3,0.5c0,0.1,0.1,0.2,0.1,0.2c0.1,0.2,0.2,0.3,0.2,0.5c0,0.1,0.1,0.2,0.1,0.2c0.1,0.3,0.2,0.5,0.3,0.8l0,0
			c0.1,0.2,0.1,0.4,0.1,0.6c0,0.1,0,0.1,0,0.2s0,0.3,0.1,0.4c0,0.1,0,0.2,0,0.2c0,0.1,0,0.2,0,0.3c0,0.1,0,0.2,0,0.3
			c0,0.1,0,0.2,0,0.3c0,0.1,0,0.2,0,0.3c0,0.1,0,0.2,0,0.3c0,0.1,0,0.2,0,0.3c0,0.1,0,0.2,0,0.2c0,0.1,0,0.2-0.1,0.3
			c0,0.1,0,0.1,0,0.2s-0.1,0.2-0.1,0.4c0,0,0,0,0,0.1c-0.2,0.6-0.4,1.3-0.8,1.8l0,0c-0.1,0.1-0.2,0.3-0.3,0.4l0,0
			c-0.1,0.1-0.2,0.3-0.3,0.4l0,0c-0.1,0.1-0.2,0.2-0.3,0.4l0,0c-0.1,0.1-0.2,0.2-0.4,0.4l0,0c-0.1,0.1-0.2,0.2-0.4,0.3
			c-0.1,0.1-0.3,0.2-0.4,0.3l0,0c-0.2,0.1-0.4,0.3-0.6,0.4c-0.1,0-0.1,0.1-0.2,0.1c-0.1,0.1-0.3,0.1-0.4,0.2c-0.1,0-0.2,0.1-0.2,0.1
			c-0.1,0.1-0.2,0.1-0.3,0.2c-0.1,0-0.2,0.1-0.3,0.1s-0.2,0.1-0.3,0.1s-0.2,0.1-0.3,0.1s-0.2,0.1-0.3,0.1s-0.2,0-0.3,0.1
			c-0.1,0-0.2,0-0.3,0.1c-0.1,0-0.2,0-0.3,0s-0.2,0-0.3,0s-0.2,0-0.3,0s-0.2,0-0.3,0s-0.2,0-0.3,0s-0.2,0-0.3,0s-0.2,0-0.3,0
			s-0.2,0-0.3,0s-0.2,0-0.3,0s-0.2,0-0.3,0s-0.2,0-0.3-0.1c-0.1,0-0.2,0-0.2-0.1c-0.1,0-0.2-0.1-0.3-0.1s-0.2-0.1-0.2-0.1
			c-0.1,0-0.2-0.1-0.3-0.1s-0.1-0.1-0.2-0.1c-0.1-0.1-0.2-0.1-0.4-0.2c-0.1,0-0.1-0.1-0.2-0.1c-0.2-0.1-0.4-0.2-0.5-0.3
			c-1.1-0.7-1.9-1.6-2.6-2.6c-0.2-0.3-0.4-0.7-0.6-1.1c-0.5-1.1-0.7-2.3-0.7-3.5c0-0.4,0-0.8,0.1-1.2c0-0.1,0-0.3,0-0.4
			c0-0.4,0-0.9,0-1.3c-0.1-0.4-0.2-0.9-0.3-1.2c-0.1-0.1-0.1-0.2-0.2-0.3c-1-1.5-2.1-3-3.2-4.4c-0.6-0.7-1.1-1.4-1.7-2.1
			c-0.6-0.7-1.2-1.4-1.8-2.1l0,0c-0.1-0.1-0.2-0.3-0.4-0.4l-0.1-0.1c-0.1-0.1-0.2-0.1-0.3-0.2c-0.1,0-0.1-0.1-0.2-0.1
			c-0.1-0.1-0.2-0.1-0.3-0.2c-0.1,0-0.1-0.1-0.2-0.1c-0.1,0-0.2-0.1-0.3-0.1c0,0-0.1,0-0.1-0.1c-0.3-0.1-0.6-0.2-0.9-0.2
			c-0.1,0-0.1,0-0.2,0c-0.1,0-0.2,0-0.2,0h-0.1c-0.1,0-0.3,0-0.4,0c-0.1,0-0.1,0-0.2,0c-0.4,0.1-0.7,0.2-1.1,0.3
			c-0.1,0-0.1,0.1-0.2,0.1c-0.1,0.1-0.2,0.1-0.4,0.2c-0.1,0-0.1,0.1-0.2,0.1c-0.1,0.1-0.2,0.1-0.3,0.2c-0.1,0-0.1,0.1-0.2,0.1
			c-0.1,0.1-0.2,0.2-0.3,0.2c-0.1,0.1-0.1,0.1-0.2,0.2c-0.1,0.1-0.2,0.2-0.3,0.3c0,0.1-0.1,0.1-0.1,0.2c-0.1,0.2-0.2,0.3-0.4,0.5
			c-2.3,3.9-4.5,7.9-6.8,11.8l0,0c-0.6,1.1-1.2,2.2-1.9,3.2c-0.9,1.6-1.8,3.2-2.7,4.7c-4.9,8.5-9.8,17.1-14.7,25.6
			c-1.4,2.4-2.8,4.8-4.1,7.2c-0.6,1-1.1,2-1.7,3c-0.3,0.4-0.5,0.8-0.6,1.2c-0.1,0.1-0.1,0.2-0.1,0.3c-0.1,0.2-0.1,0.4-0.2,0.6
			c0,0.2-0.1,0.4-0.1,0.6c0,0.2,0.1,0.4,0.1,0.5c0.1,0.2,0.2,0.3,0.4,0.5c0.4,0.4,1,0.8,1.9,1.3c12.8,7.4,25.6,14.8,38.4,22.3
			c0.4,0.2,0.7,0.5,1.1,0.8c0.4,0,0.9,0,1.3,0c0.2-0.3,0.5-0.6,0.8-0.9c0.2-0.2,0.4-0.4,0.6-0.6c0.2-0.2,0.4-0.5,0.5-0.7l0.1-0.1
			C149.6,154.2,153.5,147.4,157.5,140.5C157.4,140.6,157.5,140.6,157.5,140.5C157.5,140.6,157.5,140.6,157.5,140.5z M143.1,140.7
			c-1.3,0.7-2.8,1.1-4.5,1.2c-0.8-0.2-1.6-0.4-2.5-0.6c-0.4-0.1-0.8-0.2-1.2-0.3s-0.8-0.2-1.2-0.4l0,0c-0.1,0-0.2-0.1-0.3-0.1h-0.1
			c-0.1,0-0.1,0-0.2,0c0,0,0,0-0.1,0s-0.2,0-0.2,0l0,0c-0.1,0-0.1,0-0.2,0l0,0l0,0c-0.1,0-0.1,0-0.2,0c0,0,0,0-0.1,0s-0.1,0-0.2,0
			l0,0c-0.1,0-0.1,0-0.2,0.1c0,0,0,0-0.1,0c0,0-0.1,0-0.1,0.1l0,0c-0.1,0-0.1,0.1-0.2,0.1l0,0c0,0-0.1,0.1-0.1,0.2c0,0,0,0,0,0.1
			c0,0-0.1,0.1-0.1,0.2c0,0,0,0,0,0.1s-0.1,0.2-0.1,0.2l0,0c0,0.1-0.1,0.2-0.1,0.3v0.1c0,0.1-0.1,0.1-0.1,0.2c0,0,0,0.1-0.1,0.1
			l-0.1,0.1c0,0,0,0-0.1,0.1l-0.1,0.1c0,0,0,0-0.1,0.1l-0.1,0.1c0,0,0,0-0.1,0s-0.1,0.1-0.2,0.1l0,0c-0.1,0-0.1,0-0.2,0
			c0,0,0,0-0.1,0h-0.1c0,0,0,0-0.1,0s-0.2,0-0.3,0l0,0c-0.1,0-0.2,0-0.3-0.1c0,0,0,0-0.1,0s-0.2-0.1-0.3-0.1c0,0,0,0-0.1,0
			c-0.1-0.1-0.2-0.1-0.3-0.2c-0.2-0.1-0.4-0.2-0.6-0.4c-0.1,0-0.1-0.1-0.2-0.1c-0.7-0.5-1.1-1.2-0.4-2.3c0.3-0.6,0.4-1,0.4-1.4
			c-0.1-0.3-0.2-0.6-0.5-0.9c-0.2-0.2-0.4-0.4-0.7-0.6c-0.1-0.1-0.1-0.1-0.2-0.2c-0.2-0.2-0.4-0.4-0.6-0.5c-0.1-0.1-0.1-0.1-0.2-0.2
			c-0.1-0.1-0.3-0.2-0.4-0.4c-0.1-0.1-0.2-0.2-0.2-0.2c-0.1-0.1-0.2-0.2-0.3-0.4c-0.1-0.1-0.1-0.2-0.2-0.2c-0.1-0.2-0.3-0.4-0.4-0.5
			c-0.1-0.1-0.2-0.2-0.3-0.4c-0.1-0.1-0.1-0.2-0.2-0.2c-0.1-0.1-0.2-0.3-0.2-0.4c0-0.1-0.1-0.1-0.1-0.2c-0.1-0.1-0.2-0.3-0.2-0.4
			c-0.1-0.3-0.3-0.6-0.4-0.8v-0.1c-0.1-0.3-0.2-0.5-0.3-0.8v-0.1c-0.1-0.3-0.1-0.6-0.2-0.9l0,0c-0.1-0.3-0.1-0.6-0.1-0.9l0,0
			c0-0.3,0-0.6,0-0.9c0-0.1,0-0.2,0-0.2c0-0.2,0-0.4,0-0.6c0-0.1,0-0.2,0-0.3c0-0.2,0.1-0.4,0.1-0.6c0-0.1,0-0.2,0.1-0.3
			c0.1-0.3,0.1-0.6,0.2-0.9c0-0.1,0.1-0.2,0.1-0.4v-0.1c0-0.1,0.1-0.2,0.1-0.2v-0.1c0-0.1,0.1-0.2,0.1-0.2l0,0
			c0.1-0.1,0.1-0.2,0.2-0.2c0,0,0,0,0.1-0.1l0.1-0.1c0,0,0,0,0.1-0.1c0.1,0,0.1-0.1,0.2-0.1l0,0c0.1,0,0.2-0.1,0.2-0.1s0,0,0.1,0
			s0.1,0,0.2,0h0.1c0.1,0,0.2,0,0.2,0l0,0c0.1,0,0.2,0.1,0.3,0.1h0.1c0.1,0,0.2,0.1,0.3,0.1c0,0,0.1,0,0.1,0.1
			c0.1,0.1,0.2,0.1,0.4,0.2c0.4,0.3,0.8,0.5,1.2,0.7s0.9,0.4,1.3,0.6c0.9,0.4,1.6,0.8,2,1.4s0.4,1.4,0.1,2.5c0,0.1,0,0.1,0,0.2
			c0,0.2,0,0.5,0,0.8c0,0.2,0.1,0.4,0.2,0.6c0,0.1,0.1,0.3,0.2,0.4c0.1,0.1,0.1,0.3,0.2,0.4c0.1,0.1,0.2,0.2,0.2,0.3
			c0.1,0.1,0.2,0.2,0.3,0.2c0.3,0.2,0.6,0.4,0.9,0.6l0,0l0,0c0.8,0.5,1.5,0.9,2.3,1.3h0.1c0.4,0.2,0.8,0.3,1.1,0.5
			c0.1,0,0.1,0,0.2,0.1c0.4,0.2,0.8,0.3,1.2,0.4c0.1,0,0.2,0,0.3,0l0,0l0,0c0.1,0,0.2,0,0.2,0s0,0,0.1,0s0.2,0,0.3-0.1h0.1
			c0.1,0,0.2-0.1,0.3-0.1c0,0,0.1,0,0.1-0.1c0.1,0,0.1-0.1,0.2-0.1c0,0,0.1,0,0.1-0.1c0.1,0,0.1-0.1,0.2-0.1l0.1-0.1
			c0.1,0,0.1-0.1,0.2-0.1c0,0,0.1,0,0.1-0.1c0.1-0.1,0.2-0.2,0.2-0.2c0.1-0.1,0.1-0.2,0.2-0.3c0-0.1,0.1-0.1,0.1-0.2v-0.1
			c0-0.1,0.1-0.2,0.1-0.3l0,0c0-0.1,0-0.2,0.1-0.4l0,0l0,0c0-0.1,0-0.3,0-0.4l0,0c0-0.1,0-0.3,0-0.4l0,0c0-0.1,0-0.2-0.1-0.3
			c0,0,0,0,0-0.1s-0.1-0.2-0.1-0.3c-0.2-0.4-0.5-0.7-0.8-1.1c-0.9-1.1-1.9-2-2.9-3c-0.3-0.4-0.7-0.7-1.1-1c-1.2-1.1-2.4-2.2-3.5-3.4
			c-0.1-0.1-0.2-0.2-0.3-0.3c-0.2-0.2-0.3-0.4-0.5-0.6c-0.1-0.1-0.1-0.1-0.1-0.2c-0.1-0.1-0.2-0.3-0.3-0.4s-0.1-0.2-0.2-0.2
			c-0.1-0.1-0.2-0.2-0.2-0.4c-0.1-0.1-0.1-0.2-0.1-0.3c-0.1-0.1-0.1-0.2-0.2-0.4c0-0.1-0.1-0.2-0.1-0.3c-0.1-0.1-0.1-0.3-0.2-0.4
			c-0.1-0.2-0.1-0.3-0.2-0.5c0-0.1-0.1-0.2-0.1-0.3c0-0.1-0.1-0.2-0.1-0.4c0-0.1,0-0.2-0.1-0.2c0-0.1,0-0.2-0.1-0.4
			c0-0.1,0-0.1,0-0.2s0-0.3,0-0.4s0-0.1,0-0.2c0-0.7,0-1.4,0.2-2v-0.1c0-0.2,0.1-0.3,0.1-0.5v-0.1c0.1-0.2,0.1-0.3,0.2-0.5l0,0
			c0.1-0.2,0.2-0.5,0.3-0.7c0-0.1,0.1-0.2,0.1-0.3c0-0.1,0.1-0.2,0.1-0.2c0.1-0.2,0.2-0.4,0.3-0.6s0.3-0.4,0.4-0.6
			c0-0.1,0.1-0.1,0.1-0.2c0.1-0.1,0.2-0.3,0.3-0.4s0.1-0.1,0.2-0.2c0.1-0.1,0.2-0.2,0.3-0.3c0.1-0.1,0.1-0.1,0.2-0.2
			c0.1-0.1,0.3-0.3,0.4-0.4c0,0,0,0,0.1-0.1c0.2-0.1,0.3-0.3,0.5-0.4c0,0,0.1-0.1,0.2-0.1c0.1-0.1,0.3-0.2,0.4-0.3
			c0.1,0,0.1-0.1,0.2-0.1c0.1-0.1,0.3-0.1,0.4-0.2c0.1,0,0.1-0.1,0.2-0.1c0.2-0.1,0.3-0.1,0.5-0.2c0,0,0.1,0,0.1-0.1
			c0.2-0.1,0.4-0.2,0.6-0.2c0.1,0,0.1,0,0.2,0c0.2,0,0.3-0.1,0.5-0.1c0.1,0,0.2,0,0.2,0c0.2,0,0.3-0.1,0.5-0.1c0.1,0,0.2,0,0.2,0
			c0.2,0,0.3,0,0.5-0.1c0.1,0,0.1,0,0.2,0c0.2,0,0.5,0,0.7,0h0.1c0.2,0,0.4,0,0.6,0c0.1,0,0.2,0,0.2,0c0.2,0,0.3,0,0.5,0.1
			c0.1,0,0.1,0,0.2,0c0.2,0,0.5,0.1,0.7,0.1l0,0c0.2,0,0.4,0.1,0.6,0.2c0.4,0.1,0.7,0.3,1.1,0.4c0.2,0.1,0.4,0.1,0.7,0.1
			c0.2,0,0.3,0,0.5,0l0,0l0,0c0,0,0,0,0.1,0s0.1,0,0.2,0h0.1c0.1,0,0.1,0,0.2,0c0,0,0,0,0.1,0s0.2,0,0.3,0l0,0c0.1,0,0.1,0,0.2-0.1
			c0,0,0,0,0.1,0s0.1,0,0.1-0.1c0,0,0,0,0.1,0s0.1-0.1,0.2-0.1l0,0c0.1-0.1,0.2-0.2,0.3-0.3l0,0c0.1-0.1,0.2-0.2,0.3-0.2l0,0
			c0.1-0.1,0.2-0.1,0.3-0.1l0,0c0.1,0,0.2-0.1,0.3-0.1l0,0c0.1,0,0.2,0,0.2,0h0.1c0.1,0,0.1,0,0.2,0h0.1c0.1,0,0.2,0.1,0.2,0.1h0.1
			c0.1,0.1,0.2,0.1,0.4,0.2s0.4,0.2,0.6,0.3c0.4,0.2,0.7,0.5,0.9,0.8c0,0.1,0.1,0.1,0.1,0.2c0.1,0.2,0.2,0.5,0.2,0.8
			c0,0.2,0,0.4,0,0.6c0,0.1,0,0.2,0,0.3c0,0.1,0,0.2,0.1,0.3c0.1,0.4,0.4,0.9,0.7,1.3c0.2,0.2,0.3,0.4,0.5,0.5
			c0.2,0.2,0.5,0.4,0.7,0.7l0.1,0.1c0.2,0.2,0.4,0.4,0.6,0.7l0,0c0.4,0.5,0.8,1,1.1,1.6l0,0c0.4,0.7,0.8,1.5,1,2.3v0.1
			c0.1,0.2,0.1,0.5,0.2,0.8c0,0,0,0,0,0.1c0,0.3,0.1,0.6,0.1,0.9c0,0,0,0,0,0.1c0,0.2,0,0.5,0,0.8c0,0.1,0,0.2,0,0.2
			c0,0.2,0,0.4-0.1,0.6c0,0.1,0,0.2,0,0.3c0,0.3-0.1,0.6-0.2,0.9c0,0.1,0,0.1-0.1,0.2c-0.1,0.5-0.3,1-0.6,1.2l0,0
			c-0.1,0.1-0.3,0.2-0.4,0.3l0,0c-0.1,0-0.1,0-0.2,0.1c0,0,0,0-0.1,0s-0.1,0-0.2,0H152c-0.1,0-0.2,0-0.3,0l0,0c-0.1,0-0.2,0-0.3-0.1
			h-0.1c-0.1,0-0.2-0.1-0.2-0.1H151c-0.1-0.1-0.2-0.1-0.4-0.2c-0.4-0.2-0.7-0.4-1.1-0.6c0,0,0,0-0.1,0c-0.5-0.3-1.1-0.6-1.6-0.8l0,0
			c-0.3-0.1-0.6-0.3-0.9-0.5c-0.1-0.1-0.2-0.1-0.3-0.2l0,0c-0.1-0.1-0.1-0.1-0.2-0.2l0,0c-0.1-0.1-0.1-0.2-0.2-0.2l0,0
			c0-0.1-0.1-0.2-0.1-0.3l0,0c0-0.1-0.1-0.2-0.1-0.3c0,0,0,0,0-0.1s0-0.2,0-0.3l0,0c0-0.1,0-0.2,0-0.4V120c0-0.1,0-0.3,0.1-0.4
			c0-0.2,0-0.4,0-0.7c-0.1-0.6-0.4-1.3-0.8-1.8c-0.1-0.1-0.2-0.2-0.2-0.2c-0.2-0.1-0.4-0.3-0.6-0.4c-0.1-0.1-0.2-0.1-0.2-0.2
			c-0.1-0.1-0.2-0.2-0.3-0.2c-0.1-0.1-0.2-0.1-0.3-0.2s-0.2-0.1-0.3-0.2s-0.2-0.1-0.3-0.2c-0.1,0-0.2-0.1-0.2-0.1
			c-0.1-0.1-0.3-0.1-0.4-0.2c-0.1,0-0.1-0.1-0.2-0.1c-0.1-0.1-0.3-0.1-0.4-0.2c-0.1,0-0.1-0.1-0.2-0.1c-0.2-0.1-0.3-0.1-0.5-0.2
			c0,0-0.1,0-0.1-0.1c-0.2-0.1-0.3-0.1-0.5-0.2l0,0c-0.2-0.1-0.4-0.1-0.6-0.2c-0.1,0-0.2,0-0.3-0.1h-0.1c0,0,0,0-0.1,0s-0.1,0-0.2,0
			h-0.1c-0.1,0-0.2,0-0.3,0.1l0,0c-0.1,0-0.2,0.1-0.4,0.1h-0.1c-0.1,0-0.2,0.1-0.2,0.1s-0.1,0-0.1,0.1c-0.1,0-0.1,0.1-0.2,0.1
			c0,0-0.1,0-0.1,0.1c-0.1,0-0.1,0.1-0.2,0.1c0,0-0.1,0-0.1,0.1c-0.1,0.1-0.2,0.2-0.2,0.2c-0.1,0.1-0.1,0.2-0.2,0.3
			c-0.1,0.2-0.1,0.4-0.2,0.7c0,0.1,0,0.3,0,0.4s0,0.3,0,0.4c0,0.4,0.2,0.8,0.3,1l0,0c0.2,0.3,0.4,0.5,0.6,0.8c0,0.1,0.1,0.1,0.1,0.2
			c0.7,0.8,1.5,1.5,2.3,2.3c0.1,0.1,0.2,0.2,0.3,0.3c0.1,0.1,0.2,0.2,0.3,0.3c0.2,0.2,0.4,0.4,0.6,0.7l0,0c0.3,0.3,0.6,0.6,0.9,1
			c1,1,1.9,2,2.8,3c0.4,0.5,0.8,0.9,1.1,1.4c0.1,0.2,0.3,0.4,0.4,0.6c0,0.1,0.1,0.1,0.1,0.2c0.1,0.1,0.2,0.3,0.2,0.4
			c0,0.1,0.1,0.1,0.1,0.2c0.1,0.1,0.1,0.3,0.2,0.4c0,0.1,0.1,0.1,0.1,0.2c0.1,0.1,0.1,0.3,0.2,0.4c0,0.1,0,0.1,0.1,0.2
			c0.1,0.2,0.1,0.3,0.1,0.5v0.1c0.1,0.7,0.2,1.3,0.2,2l0,0c0,0.5-0.1,0.9-0.2,1.4c0,0.1,0,0.1,0,0.2c0,0.1-0.1,0.2-0.1,0.3
			s0,0.2-0.1,0.2c0,0.1-0.1,0.2-0.1,0.3s-0.1,0.2-0.1,0.3s-0.1,0.2-0.1,0.3s-0.1,0.2-0.2,0.4c0,0.1-0.1,0.1-0.1,0.2
			c-0.1,0.2-0.2,0.4-0.3,0.6c-0.4,0.8-1,1.6-1.5,2.2c-0.3,0.3-0.6,0.6-0.9,0.9c-0.3,0.3-0.6,0.5-1,0.8
			C143.5,140.4,143.3,140.6,143.1,140.7z"/>
	</g>
</g>
</svg>
