<?xml version="1.0" encoding="utf-8"?>
<!-- Generator: Adobe Illustrator 22.1.0, SVG Export Plug-In . SVG Version: 6.00 Build 0)  -->
<svg version="1.1" id="Capa_1" xmlns="http://www.w3.org/2000/svg" xmlns:xlink="http://www.w3.org/1999/xlink" x="0px" y="0px"
	 viewBox="0 0 200 200" style="enable-background:new 0 0 200 200;" xml:space="preserve">
<style type="text/css">
	.st0{fill:#5C5B5C;}
	.st1{fill:#999999;}
</style>
<g>
	<path class="st0" d="M-235.6-1092.9l-0.3,0.2C-235.8-1092.8-235.7-1092.8-235.6-1092.9L-235.6-1092.9z"/>
</g>
<g>
	<g>
		<path class="st1" d="M61.1,125.5c-4.7,0-7.3-2.7-7.7-7.3h31.4c-0.6-1.7-1.1-3.4-1.5-5.2c-8,0-16,0-23.9,0c-2.7,0-4.8-1.2-5.9-3.4
			c-1.3-2.6-2-5.4-3.2-8.6h31.4c0-0.6,0-1.3,0-1.9c0-6.4,1-12.5,2.8-18.2H38.2c3.9-4.3,7.8-9.4,12.6-13.4c3.2-2.7,4.1-2.7,6.7-3.5
			c0.8-0.2,1.7-0.1,2.5-0.1c11.1,0,22.2,0,33.3,0c1.7-2.4,3.6-4.6,5.7-6.7c-13.3,0-26.5,0-39.8,0c-4.8,0-8.9,1.6-12.3,4.9
			c-3,2.9-6,5.8-9,8.7c-0.5,0.5-1.1,0.9-1.8,1.5c-0.3-3.1-1.6-5.1-4.5-5c-2.6,0.1-5.3,0.5-7.7,1.4c-2.9,1.1-3.6,4.2-1.5,6.5
			c1.7,1.8,3.9,3.1,6.1,4.8c-1.4,1.3-3.1,2.9-4.7,4.5c-4.8,4.9-7.5,10.8-7.6,17.7c-0.1,5-0.3,9.9,0.1,14.9c0.2,3,0.9,6.2,2.3,8.7
			c0.8,1.3,1.3,2.6,1.5,3.9v6.1c0,3.1,2.5,5.6,5.6,5.6H37c3.1,0,5.6-2.5,5.6-5.6V134h50.2c-1.8-2.6-3.4-5.3-4.8-8.1
			C79,125.6,70,125.6,61.1,125.5z M21.5,96.8c1-4.1,5.1-6.5,9.1-5c4.8,1.7,9.2,4.2,12.7,7.9c2.9,3,2.3,4.9-1.8,5.8
			c-2.7,0.5-5.4,0.6-7.8,0.8c-2.3-0.1-4.4-0.1-6.4-0.4C23.1,105.1,20.5,101,21.5,96.8z M33.1,125.5c-3.6-0.1-7.1-3.1-7.7-5.8
			c-0.6-3.1,0.7-4.7,3.8-4.7c3.2,0,6.3,0,9.5,0c0.7,0,1.7,0.1,2.1,0.6c2.8,3.1,5.5,6.2,8.7,9.9C43.5,125.6,38.3,125.7,33.1,125.5z"
			/>
	</g>
	<path class="st1" d="M139.5,50.5c-26.8,0-48.4,21.7-48.4,48.4s21.7,48.4,48.4,48.4S188,125.7,188,99S166.3,50.5,139.5,50.5z
		 M141,114.4l-3.3,3.3l-7,7l-24-24l10.4-10.4l13.6,13.6l31.4-31.4l10.4,10.4L141,114.4z"/>
</g>
</svg>
