<?xml version="1.0" encoding="utf-8"?>
<!-- Generator: Adobe Illustrator 22.1.0, SVG Export Plug-In . SVG Version: 6.00 Build 0)  -->
<svg version="1.1" id="Capa_1" xmlns="http://www.w3.org/2000/svg" xmlns:xlink="http://www.w3.org/1999/xlink" x="0px" y="0px"
	 viewBox="0 0 200 200" style="enable-background:new 0 0 200 200;" xml:space="preserve">
<style type="text/css">
	.st0{fill:#ffffff;}
</style>
<g>
	<g>
		<g>
			<path class="st0" d="M100,193.6c-51.6,0-93.6-42-93.6-93.6S48.4,6.4,100,6.4s93.6,42,93.6,93.6S151.7,193.6,100,193.6z M100,15.3
				c-46.7,0-84.7,38-84.7,84.7s38,84.7,84.7,84.7s84.7-38,84.7-84.7S146.7,15.3,100,15.3z"/>
		</g>
	</g>
	<g>
		<g id="dVy3oS.tif_1_">
			<g>
				<g>
					<path class="st0" d="M88.9,93.9c1.4-2.5,2.9-4.8,4-7.3c1.6-3.5,4.3-4.8,7.9-5.2c8.7-1,17.3-1.6,26.1-1.1
						c5.1,0.3,10.1,0.8,15.2,1.4c2.4,0.3,4.3,1.5,5.4,3.8c1.2,2.5,2.7,4.9,4,7.4c0.2,0.3,0.4,0.6,0.5,0.9c2.7-1.9,6.8-1.8,9.5,0.2
						c0.9,0.7,1,1.6,0.9,2.5s-0.9,1.2-1.7,1.3c-1.1,0.1-2.2,0.2-3.3,0.3c-0.2,0-0.5,0-0.7,0c-0.4,0.1-0.8,0.4-1.2,0.5
						c0.2,0.3,0.4,0.8,0.6,1c3.2,3.4,6,7,7.3,11.5c0.3,1.1,0.5,2.3,0.5,3.4c0.1,2.2,0,4.4,0,6.7c0,1.9-0.5,3.7-1.3,5.4
						c-0.2,0.5-0.4,1-0.4,1.5c0,3,0,6.1,0,9.1c0,1.4-0.4,1.8-1.8,1.8c-3.1,0-6.3,0-9.4,0c-1.3,0-1.7-0.4-1.7-1.7c0-1.7,0-3.4,0-5.1
						c0-0.1-0.1-0.1-0.1-0.2c-19.1,0-38.2,0-57.5,0c0,1.7,0,3.3,0,5s-0.3,2-2,2c-3,0-6,0-9,0c-1.5,0-1.8-0.4-1.8-1.8c0-3,0-6,0-9
						c0-0.4-0.1-0.9-0.3-1.3c-0.9-1.7-1.5-3.5-1.5-5.5c0-2.1,0-4.3,0-6.4c-0.1-4,1.5-7.5,3.9-10.6c1.4-1.8,2.9-3.5,4.4-5.2
						c0.5-0.6,0.4-1-0.4-1.1c-1.2-0.2-2.5-0.2-3.7-0.3c-0.3,0-0.6-0.1-0.9-0.1c-0.7-0.1-1.4-0.3-1.5-1.1c-0.2-0.9-0.2-1.8,0.6-2.5
						C81.5,92.1,86.4,91.9,88.9,93.9z M120.5,95.6c9,0,18,0,26.9,0c1.2,0,1.7-0.4,1.8-1.5c0.1-0.7-0.1-1.5-0.4-2.1
						c-1.2-2.1-2.3-4.3-3.7-6.3c-0.9-1.4-2.3-2.3-4.2-2.3c-13.7,0-27.3,0-41,0c-1.9,0-3.2,0.8-4.1,2.3c-1.4,2.1-2.6,4.3-3.8,6.5
						c-0.3,0.5-0.4,1-0.4,1.6c0,1.4,0.6,2,2,2C102.6,95.6,111.5,95.6,120.5,95.6z M104.6,122.9c0.4,1,0.6,1.9,1.1,2.6
						c0.8,1.2,1.8,2.3,3.4,2.3c7.6,0,15.2,0,22.8,0c0.3,0,0.6,0,0.9-0.1c2-1,3-2.7,3.4-4.8C125.7,122.9,115.2,122.9,104.6,122.9z
						 M110.6,108.3L110.6,108.3c-2,0-4.1,0-6.1,0c-1.5,0-2.2,0.8-2.2,2.3c0,1.8,1.2,3.1,2.2,4.4c0.7,0.9,1.6,1.4,2.7,1.4
						c3.3,0.1,6.6,0.2,9.9,0.1c1.4,0,2.4-1.2,2.4-2.6c0-0.8,0-1.7,0-2.6c0-2-0.9-3-3-3C114.5,108.3,112.5,108.3,110.6,108.3z
						 M130.4,108.3c-2,0-4.1,0-6.1,0c-1.9,0-2.8,1-2.8,2.8c0,0.8,0,1.6,0,2.5c0,1.8,1.1,2.9,2.9,2.9c2.5,0,5-0.1,7.5,0
						c2.7,0.1,4.7-0.9,5.9-3.4c0.2-0.4,0.5-0.8,0.7-1.2c0.9-2-0.1-3.7-2.3-3.7C134.2,108.3,132.3,108.3,130.4,108.3z M157.1,109.2
						c0-2.3-0.8-3.1-2.8-3.1c-0.6,0-1.3,0.1-1.9,0.2c-2,0.3-4,0.8-6,0.9c-2.3,0.2-3.7,1.4-4.6,3.3c-0.2,0.5-0.4,1.3-0.1,1.6
						c0.3,0.4,1.1,0.5,1.7,0.7c0.2,0.1,0.5-0.1,0.7-0.1c2.6-0.5,5.2-1.1,7.7,0.5c0.4,0.2,1.1,0,1.6-0.2c0.8-0.4,1.5-1,2.3-1.4
						C156.7,110.9,157.1,110,157.1,109.2z M87.4,106.1c-2.5-0.1-3.1,0.3-3.5,1.8c-0.4,1.7,0.1,3.1,1.5,3.7c0.6,0.2,1.1,0.6,1.5,1
						c1,0.8,2,0.9,3.1,0.3c1.2-0.7,2.6-0.9,4-0.6c1.2,0.3,2.3,0.5,3.5,0.5c0.5,0,1.3-0.2,1.6-0.6c0.3-0.3,0.1-1.1-0.1-1.6
						c-0.9-2-2.3-3.2-4.7-3.4C91.9,106.9,89.3,106.4,87.4,106.1z"/>
				</g>
			</g>
		</g>
		<g>
			<g>
				<ellipse class="st0" cx="51.9" cy="67.3" rx="7.2" ry="7.2"/>
			</g>
			<g>
				<path class="st0" d="M75,91.9l-7.5-3.2l-5.9-11c-0.3-0.6-0.7-1.1-1.3-1.4l0,0l0,0c-0.6-0.3-1.2-0.5-1.8-0.5
					c-0.8-0.1-1.6-0.2-2.4-0.2H56h-8c-0.1,0-0.2,0-0.2,0c-0.1,0-0.2,0-0.3,0L44,75.7h-1.7c-1.6,0-3,0.6-4.1,1.7
					c-1.2,1.2-1.8,2.8-1.8,4.4v21c0,1.8,1.5,3.3,3.3,3.3s3.3-1.5,3.3-3.3V82.3h0.7v1.1l0,0v52.5c0,2.1,1.7,3.9,3.9,3.9
					s3.9-1.7,3.9-3.9v-27.5h1.4v27.5c0,2.1,1.7,3.9,3.9,3.9s3.9-1.7,3.9-3.9V98.6l0,0v-8.3l2.4,3.5l9.9,4.1c0.4,0.2,0.8,0.2,1.2,0.2
					c1.3,0,2.6-0.8,3.1-2.1C77.6,94.5,76.7,92.6,75,91.9z"/>
			</g>
		</g>
	</g>
</g>
</svg>
