<?xml version="1.0" encoding="utf-8"?>
<!-- Generator: Adobe Illustrator 22.1.0, SVG Export Plug-In . SVG Version: 6.00 Build 0)  -->
<svg version="1.1" id="Capa_1" xmlns="http://www.w3.org/2000/svg" xmlns:xlink="http://www.w3.org/1999/xlink" x="0px" y="0px"
	 viewBox="0 0 200 200" style="enable-background:new 0 0 200 200;" xml:space="preserve">
<style type="text/css">
	.st0{fill:#999999;}
</style>
<g id="vCWeUl_2_">
	<g>
		<path class="st0" d="M90.6,39.1c12.9,0,25.2,0,37.5,0c9.2,0,12.5,3.3,12.5,12.5c0,16.2,0.1,32.4,0,48.5c0,3.9,1.4,6.1,5.3,6.1
			c3.8-0.1,5.4-2.3,5.4-6.1c-0.1-16.7,0.1-33.4-0.1-50.1c-0.1-11.7-7.3-18.8-19-18.9c-14.8-0.1-29.6-0.2-44.4,0.1
			c-2.5,0-5.5,1.3-7.2,3C68.2,46.2,56.1,58.4,44,70.7c-1.5,1.5-2.6,4.2-2.6,6.3c-0.2,21.2-0.2,42.4-0.1,63.7
			c0.1,10.5,6.6,17.8,17,18c22.8,0.4,45.6,0.2,68.4,0c1.6,0,4-1.6,4.6-3.1s0.1-4.3-1-5.6c-0.9-1.1-3.4-1.4-5.2-1.4
			c-20-0.1-40-0.1-60-0.1c-10.4,0-13.2-2.9-13.2-13.4c0-16.7,0-33.4,0-50.1c0-1.7,0.1-3.4,0.3-5.6c6.4,0,12.4,0.1,18.4,0
			c12.7-0.2,19.6-7,19.8-19.7C90.7,53.2,90.6,46.6,90.6,39.1z M141.6,132c-1.7-2.7-2.8-4.8-4.2-6.8c-2.2-3.3-5.2-4.7-8.9-2.5
			c-3.9,2.3-4.3,5.7-2.2,9.4c3.3,5.9,6.8,11.7,10.4,17.4c3.5,5.4,9.4,5,12.2-0.9c1.6-3.3,2.9-6.7,4.3-10.1
			c5.1-12.2,10.3-24.3,15-36.6c0.9-2.3,0.2-5.9-1.2-7.9c-0.9-1.4-4.7-2.1-6.4-1.4c-2.1,0.9-3.8,3.4-4.8,5.6
			C151,109.2,146.5,120.3,141.6,132z M93.1,97.2c8.9,0,17.7,0,26.6,0c4.2,0,6.2-2.2,6.1-6.1c-0.1-3.7-2.3-5.4-6.2-5.3
			c-17.4,0.1-34.7,0.1-52.1,0c-4.1,0-6.6,1.6-6.7,5.4c-0.1,4.2,2.5,6.1,6.8,6C76,97.1,84.5,97.2,93.1,97.2z M93.5,106.7
			c-8.9,0-17.7,0.1-26.6-0.1c-4-0.1-6.1,1.9-6.2,5.4c-0.1,3.8,2.1,5.9,6.2,5.9c17.5-0.1,35.1-0.1,52.6,0c4.2,0,6.2-2,6.1-6
			c-0.1-3.8-2.4-5.4-6.2-5.3C110.8,106.8,102.2,106.7,93.5,106.7z M89.9,138.7c7.6,0,15.3-0.2,22.9,0.1c4.3,0.1,6.2-2,6.1-5.8
			c-0.1-3.6-1.9-5.5-6-5.4c-15.5,0.2-30.9,0.2-46.4,0c-4.1,0-5.9,2-5.9,5.5s1.6,5.8,5.7,5.7C74.3,138.5,82.1,138.7,89.9,138.7z
			 M121.8,68.4c11.1,0,11.1,0,11.1-11.2c0-1.6-0.1-3.1,0-4.7c0.1-2.8-0.9-4.2-3.9-4.1c-4.8,0.2-9.7,0.1-14.5,0c-3-0.1-4.1,1.2-3.9,4
			c0.1,1.5,0,3.1,0,4.7C110.7,68.4,110.7,68.4,121.8,68.4z"/>
		<path class="st0" d="M90.6,39.1c0,7.4,0.1,14,0,20.6c-0.2,12.7-7.1,19.5-19.8,19.7c-6,0.1-12.1,0-18.4,0c-0.1,2.2-0.2,3.9-0.3,5.6
			c0,16.7,0,33.4,0,50.1c0,10.5,2.8,13.4,13.2,13.4c20,0,40,0,60,0.1c1.8,0,4.2,0.3,5.2,1.4c1.1,1.3,1.6,4.1,1,5.6s-3,3.1-4.6,3.1
			c-22.8,0.2-45.6,0.4-68.4,0c-10.4-0.2-16.9-7.5-17-18c-0.1-21.2-0.1-42.4,0.1-63.7c0-2.1,1.1-4.8,2.6-6.3
			c12-12.3,24.2-24.5,36.6-36.5c1.8-1.7,4.8-3,7.2-3c14.8-0.3,29.6-0.2,44.4-0.1c11.7,0.1,18.9,7.3,19,18.9
			c0.1,16.7,0,33.4,0.1,50.1c0,3.9-1.6,6.1-5.4,6.1c-3.9,0.1-5.3-2.2-5.3-6.1c0.1-16.2,0.1-32.4,0-48.5c0-9.3-3.3-12.5-12.5-12.5
			C115.9,39.1,103.6,39.1,90.6,39.1z"/>
		<path class="st0" d="M141.6,132c4.9-11.6,9.3-22.7,14.1-33.6c1-2.2,2.7-4.8,4.8-5.6c1.7-0.7,5.5,0,6.4,1.4c1.4,2.1,2,5.7,1.2,7.9
			c-4.7,12.3-9.9,24.4-15,36.6c-1.4,3.4-2.7,6.8-4.3,10.1c-2.8,5.8-8.7,6.3-12.2,0.9c-3.7-5.7-7.1-11.5-10.4-17.4
			c-2.1-3.7-1.6-7.1,2.2-9.4c3.7-2.2,6.7-0.7,8.9,2.5C138.8,127.2,140,129.3,141.6,132z"/>
		<path class="st0" d="M93.1,97.2c-8.5,0-17-0.1-25.5,0c-4.3,0.1-6.9-1.8-6.8-6c0.1-3.8,2.6-5.5,6.7-5.4c17.4,0.2,34.7,0.1,52.1,0
			c3.9,0,6.1,1.6,6.2,5.3c0.1,3.9-1.9,6.1-6.1,6.1C110.8,97.2,101.9,97.2,93.1,97.2z"/>
		<path class="st0" d="M93.5,106.7c8.7,0,17.4,0.1,26,0c3.8-0.1,6.1,1.6,6.2,5.3c0.1,3.9-1.9,6-6.1,6c-17.5-0.1-35.1-0.1-52.6,0
			c-4.2,0-6.3-2.1-6.2-5.9c0.1-3.5,2.2-5.5,6.2-5.4C75.8,106.9,84.6,106.7,93.5,106.7z"/>
		<path class="st0" d="M89.9,138.7c-7.8,0-15.6-0.1-23.4,0.1c-4.2,0.1-5.7-2.2-5.7-5.7c0-3.6,1.7-5.6,5.9-5.5
			c15.5,0.2,30.9,0.2,46.4,0c4.1,0,5.9,1.8,6,5.4c0.1,3.8-1.8,6-6.1,5.8C105.2,138.5,97.5,138.7,89.9,138.7z"/>
	</g>
</g>
</svg>
