<?xml version="1.0" encoding="utf-8"?>
<!-- Generator: Adobe Illustrator 22.1.0, SVG Export Plug-In . SVG Version: 6.00 Build 0)  -->
<svg version="1.1" id="Capa_1" xmlns="http://www.w3.org/2000/svg" xmlns:xlink="http://www.w3.org/1999/xlink" x="0px" y="0px"
	 viewBox="0 0 200 200" style="enable-background:new 0 0 200 200;" xml:space="preserve">
<style type="text/css">
	.st0{fill-rule:evenodd;clip-rule:evenodd;fill:white;}
</style>
<g>
	<path class="st0" d="M69.9,176.7c-5.8-0.1-11.3-1.5-16.6-3.8c-18.2-8.1-28.3-25.2-28.9-41c-0.3-8.6-0.2-52-0.1-59.2
		c0.1-22,15.4-40.1,35.3-45.7c8.5-2.4,44.9-2.8,53.8,0.1c13.7,4.5,28.5,16.2,32.3,31.5c3,12,1,22.3,8.7,23.3
		c8.2,1.1,10.6,0.7,14.8,1.1c4.3,0.5,6.4,4.2,6.4,7.9c0.4,42.9-0.1,47.9-4.4,57.3c-8,17.5-24.5,27.3-39.6,28.3
		c-2.3,0.1-4.6,0.2-6.9,0.2C124.4,176.8,75.2,176.8,69.9,176.7z M126.1,137.3c13.2,0,12.8-18,0.3-18c-17.4,0-34.9,0-52.3,0
		c-13.9,0-12.8,17.9-1,18C80,137.3,125.6,137.3,126.1,137.3z M100.8,82.6c10.3-1.3,11.3-17.9-2.7-17.9c-2.7,0-23.2-0.1-25.8,0.1
		c-11.8,1-10.7,17.8,0.9,18C73.6,82.7,98.5,82.8,100.8,82.6z"/>
</g>
</svg>
