<?xml version="1.0" encoding="utf-8"?>
<!-- Generator: Adobe Illustrator 22.1.0, SVG Export Plug-In . SVG Version: 6.00 Build 0)  -->
<svg version="1.1" id="Capa_1" xmlns="http://www.w3.org/2000/svg" xmlns:xlink="http://www.w3.org/1999/xlink" x="0px" y="0px"
	 viewBox="0 0 200 200" style="enable-background:new 0 0 200 200;" xml:space="preserve">
<style type="text/css">
	.st0{fill:white;}
</style>
<g>
	<path class="st0" d="M100,73.2c-14.8,0-26.8,12-26.8,26.8c0,14.8,12,26.8,26.8,26.8c14.8,0,26.8-12,26.8-26.8
		C126.8,85.2,114.8,73.2,100,73.2z"/>
	<path class="st0" d="M143.5,23.9H56.5c-18,0-32.6,14.6-32.6,32.6v87.1c0,18,14.6,32.6,32.6,32.6h87.1c18,0,32.6-14.6,32.6-32.6
		V56.5C176.1,38.5,161.5,23.9,143.5,23.9z M100,139.9c-22,0-39.9-17.9-39.9-39.9c0-22,17.9-39.9,39.9-39.9c22,0,39.9,17.9,39.9,39.9
		C139.9,122,122,139.9,100,139.9z M156.5,62.7c-5.3,5.3-13.9,5.3-19.1,0c-5.3-5.3-5.3-13.8,0-19.1c5.3-5.3,13.9-5.3,19.1,0
		S161.7,57.4,156.5,62.7z"/>
</g>
</svg>
